<svg width="131" height="18" viewBox="0 0 131 18" fill="none" xmlns="http://www.w3.org/2000/svg">
<path d="M112.647 8.28305C114.295 8.28305 114.931 9.29175 115.019 10.1701C115.021 10.1833 115.019 10.1967 115.015 10.2093C115.011 10.2219 115.004 10.2335 114.995 10.2434C114.986 10.2532 114.975 10.261 114.963 10.2664C114.951 10.2717 114.937 10.2744 114.924 10.2744H110.397C110.383 10.2744 110.37 10.2715 110.358 10.2659C110.345 10.2604 110.334 10.2522 110.325 10.2421C110.316 10.2319 110.31 10.22 110.306 10.2071C110.302 10.1942 110.301 10.1805 110.302 10.1671C110.424 9.30889 111.185 8.28305 112.647 8.28305ZM115.128 13.8674C115.098 13.8673 115.068 13.8743 115.042 13.8879C115.015 13.9015 114.992 13.9213 114.974 13.9456C114.566 14.5207 113.901 14.8754 112.909 14.8754C111.542 14.8754 110.355 13.9769 110.227 12.7037C110.226 12.6906 110.227 12.6773 110.231 12.6647C110.236 12.6521 110.242 12.6406 110.251 12.6307C110.26 12.6209 110.271 12.6131 110.283 12.6077C110.295 12.6023 110.308 12.5995 110.322 12.5995H118.456C118.479 12.5279 118.527 11.9826 118.527 11.4842C118.527 7.69079 116.265 5.43798 112.599 5.43798C109.528 5.43798 106.695 7.85618 106.695 11.6503C106.695 15.6107 109.6 17.9342 112.861 17.9342C115.809 17.9342 117.677 16.2849 118.282 14.2913C118.286 14.2794 118.306 14.2049 118.329 14.0961C118.334 14.0684 118.334 14.0398 118.327 14.0124C118.321 13.9849 118.308 13.9593 118.29 13.9374C118.272 13.9155 118.25 13.8979 118.224 13.8857C118.199 13.8736 118.171 13.8674 118.142 13.8674H115.128V13.8674ZM122.321 11.59L118.464 6.09207C118.444 6.06355 118.433 6.0301 118.43 5.99538C118.428 5.96066 118.436 5.92599 118.452 5.89517C118.468 5.86435 118.492 5.83855 118.522 5.8206C118.552 5.80264 118.586 5.79321 118.621 5.79334H122.413C122.477 5.79334 122.537 5.82537 122.573 5.87901L124.554 8.89617C124.592 8.95353 124.677 8.95279 124.714 8.89468L126.65 5.88124C126.667 5.85431 126.691 5.83213 126.719 5.81677C126.747 5.8014 126.778 5.79334 126.81 5.79334H130.385C130.54 5.79334 130.63 5.96692 130.541 6.09282L126.736 11.4462C126.713 11.4781 126.701 11.5162 126.701 11.5552C126.701 11.5943 126.713 11.6325 126.735 11.6645C127.981 13.4376 129.404 15.4862 130.682 17.2794C130.771 17.4053 130.682 17.5781 130.527 17.5781H126.761C126.73 17.5783 126.698 17.5706 126.671 17.5557C126.643 17.5409 126.619 17.5194 126.602 17.4932L124.547 14.3777C124.538 14.3647 124.526 14.3539 124.513 14.3465C124.499 14.3391 124.483 14.3353 124.468 14.3353C124.452 14.3353 124.437 14.3391 124.423 14.3465C124.409 14.3539 124.397 14.3647 124.388 14.3777C123.773 15.2925 122.968 16.5665 122.358 17.4932C122.341 17.5195 122.317 17.541 122.289 17.5558C122.261 17.5707 122.23 17.5783 122.199 17.5781H118.688C118.654 17.5783 118.62 17.569 118.59 17.5512C118.56 17.5334 118.536 17.5077 118.52 17.477C118.504 17.4464 118.496 17.4119 118.499 17.3773C118.501 17.3427 118.512 17.3093 118.532 17.2809L122.322 11.8061C122.344 11.7743 122.356 11.7366 122.356 11.698C122.356 11.6594 122.344 11.6217 122.322 11.59H122.321ZM101.886 17.3889V0.600843C101.886 0.495801 101.972 0.410873 102.077 0.410873H105.315C105.42 0.410873 105.505 0.495801 105.505 0.600843V17.3889C105.505 17.4932 105.42 17.5781 105.315 17.5781H102.077C102.052 17.5782 102.027 17.5734 102.004 17.564C101.981 17.5545 101.96 17.5406 101.942 17.523C101.925 17.5055 101.911 17.4846 101.901 17.4616C101.891 17.4385 101.886 17.4139 101.886 17.3889V17.3889ZM96.5537 17.3889V0.600843C96.5537 0.495801 96.6394 0.410873 96.7444 0.410873H99.9821C100.087 0.410873 100.172 0.495801 100.172 0.600843V17.3889C100.172 17.4932 100.087 17.5781 99.9821 17.5781H96.7444C96.7195 17.5782 96.6948 17.5734 96.6717 17.564C96.6486 17.5545 96.6276 17.5406 96.6099 17.523C96.5922 17.5055 96.5781 17.4846 96.5685 17.4616C96.5588 17.4385 96.5538 17.4139 96.5537 17.3889V17.3889ZM88.5467 14.8038C89.9994 14.8038 91.2368 13.6663 91.2368 11.6742C91.2368 9.63519 90.0225 8.56763 88.5467 8.56763C86.9994 8.56763 85.8327 9.63519 85.8327 11.6742C85.8327 13.6186 87.0471 14.8046 88.5467 14.8046V14.8038ZM91.2607 16.0606C90.7369 17.1989 89.5472 17.9104 88.0707 17.9104C84.5946 17.9104 82.1906 15.2784 82.1906 11.6503C82.1906 8.14151 84.4523 5.43724 87.9515 5.43724C90.0702 5.43724 90.9984 6.5994 91.2368 7.14473V5.98256C91.2368 5.87826 91.3217 5.79334 91.4275 5.79334H94.546C94.6503 5.79334 94.736 5.87826 94.736 5.98331V17.3889C94.736 17.4932 94.651 17.5781 94.546 17.5781H91.4298C91.4046 17.5781 91.3797 17.5732 91.3565 17.5635C91.3334 17.5538 91.3123 17.5396 91.2946 17.5217C91.277 17.5038 91.263 17.4826 91.2536 17.4593C91.2442 17.436 91.2395 17.4111 91.2398 17.3859C91.2458 16.9576 91.2607 15.9675 91.2607 16.0606V16.0606ZM74.4689 5.92371L76.6375 12.4929C76.6673 12.5823 76.7939 12.5793 76.8193 12.4892L78.672 5.9319C78.6833 5.89196 78.7072 5.8568 78.7403 5.83177C78.7734 5.80675 78.8138 5.79325 78.8553 5.79334H81.9991C82.128 5.79334 82.2196 5.917 82.1816 6.03918L78.6333 17.4448C78.6213 17.4836 78.5972 17.5176 78.5645 17.5418C78.5318 17.5659 78.4922 17.5789 78.4515 17.5789H75.1341C75.0943 17.5788 75.0555 17.5663 75.0232 17.543C74.9908 17.5198 74.9666 17.487 74.9538 17.4493L72.5178 10.2364C72.488 10.15 72.365 10.1507 72.3367 10.2364L69.9454 17.4478C69.9328 17.4857 69.9087 17.5187 69.8763 17.5421C69.8439 17.5655 69.805 17.5781 69.7651 17.5781H66.3762C66.3357 17.5782 66.2963 17.5653 66.2636 17.5415C66.231 17.5177 66.2067 17.4841 66.1944 17.4455L62.5999 6.03992C62.591 6.01145 62.5889 5.98128 62.5939 5.95186C62.5988 5.92244 62.6106 5.8946 62.6283 5.87058C62.646 5.84657 62.6691 5.82707 62.6958 5.81364C62.7224 5.80022 62.7518 5.79327 62.7817 5.79334H66.14C66.2249 5.79334 66.3002 5.84995 66.3233 5.9319L68.176 12.4683C68.2014 12.5577 68.328 12.5607 68.3578 12.4721L70.5495 5.92371C70.5622 5.88572 70.5865 5.85269 70.619 5.82929C70.6515 5.80589 70.6905 5.79331 70.7306 5.79334H74.2878C74.3698 5.79334 74.4435 5.84548 74.4689 5.92371V5.92371ZM61.618 9.11743C61.618 9.14514 61.6119 9.17251 61.6002 9.19762C61.5885 9.22273 61.5714 9.24498 61.5502 9.26279C61.5289 9.28061 61.5041 9.29357 61.4773 9.30076C61.4506 9.30795 61.4225 9.3092 61.3953 9.30442C61.0913 9.25304 60.7834 9.22861 60.4752 9.23141C59.0225 9.23141 57.7136 10.0852 57.7136 12.4326V17.3889C57.7136 17.4932 57.6286 17.5781 57.5236 17.5781H54.2859C54.261 17.5782 54.2363 17.5734 54.2132 17.564C54.1901 17.5545 54.1691 17.5406 54.1514 17.523C54.1337 17.5055 54.1196 17.4846 54.11 17.4616C54.1003 17.4385 54.0953 17.4139 54.0952 17.3889V5.98331C54.0952 5.87901 54.1801 5.79334 54.2859 5.79334H57.4044C57.5094 5.79334 57.5944 5.87826 57.5944 5.98331V7.38237C58.2135 6.05408 59.7138 5.67488 60.6659 5.67488C60.955 5.67488 61.244 5.70617 61.4697 5.75534C61.5569 5.77471 61.618 5.85219 61.618 5.94084V9.11743ZM48.6912 17.3889V5.98331C48.6912 5.87901 48.7768 5.79334 48.8819 5.79334H52.1195C52.2246 5.79334 52.3103 5.87826 52.3103 5.98331V17.3889C52.3103 17.4932 52.2246 17.5781 52.1195 17.5781H48.8819C48.8569 17.5782 48.8322 17.5734 48.8091 17.564C48.786 17.5545 48.765 17.5406 48.7473 17.523C48.7296 17.5055 48.7155 17.4846 48.7059 17.4616C48.6963 17.4385 48.6913 17.4139 48.6912 17.3889ZM50.4769 0.0786133C51.6673 0.0786133 52.6194 1.02697 52.6194 2.18913C52.6194 3.3513 51.6673 4.29966 50.4769 4.29966C49.3341 4.29966 48.382 3.3513 48.382 2.18913C48.382 1.02697 49.3341 0.0786133 50.4769 0.0786133V0.0786133ZM37.1611 10.7489H40.9873C41.0529 10.7489 41.0991 10.6849 41.0767 10.623L39.1875 5.19512C39.1811 5.17633 39.169 5.16001 39.1529 5.14843C39.1368 5.13684 39.1174 5.13057 39.0976 5.13049C39.0778 5.13041 39.0584 5.13652 39.0422 5.14797C39.026 5.15942 39.0137 5.17564 39.0072 5.19437L37.0725 10.623C37.0501 10.6841 37.0963 10.7497 37.1619 10.7497L37.1611 10.7489ZM42.1771 14.1639H35.923C35.8838 14.164 35.8455 14.1762 35.8135 14.1989C35.7815 14.2215 35.7573 14.2536 35.7442 14.2905L34.6193 17.4522C34.6062 17.4893 34.5818 17.5215 34.5497 17.5441C34.5175 17.5668 34.4791 17.579 34.4397 17.5789H30.8981C30.8673 17.5791 30.8369 17.5717 30.8096 17.5575C30.7822 17.5433 30.7587 17.5227 30.7411 17.4974C30.7235 17.4721 30.7123 17.4429 30.7085 17.4123C30.7047 17.3817 30.7084 17.3507 30.7193 17.3219L36.9324 0.889149C36.9461 0.852977 36.9704 0.821828 37.0022 0.799864C37.0341 0.7779 37.0718 0.766165 37.1105 0.766228H41.2034C41.2824 0.766228 41.3539 0.815396 41.3814 0.889894L47.5245 17.3226C47.5351 17.3514 47.5386 17.3822 47.5346 17.4126C47.5307 17.443 47.5194 17.472 47.5019 17.4971C47.4843 17.5222 47.4609 17.5427 47.4337 17.5568C47.4066 17.5709 47.3764 17.5782 47.3457 17.5781H43.6603C43.621 17.5781 43.5826 17.5659 43.5505 17.5433C43.5183 17.5206 43.494 17.4885 43.4808 17.4515L42.3559 14.2905C42.3427 14.2536 42.3185 14.2217 42.2865 14.199C42.2545 14.1763 42.2163 14.1641 42.1771 14.1639V14.1639Z" fill="white"/>
<path fill-rule="evenodd" clip-rule="evenodd" d="M26.1331 7.07323C26.5965 7.52428 26.918 8.10097 27.0579 8.73233C27.1978 9.36369 27.15 10.0222 26.9206 10.6268L25.1721 15.3767C24.7132 16.6238 23.6673 17.5886 22.3747 17.8404C21.7282 17.9698 21.0586 17.921 20.4377 17.6992C19.8168 17.4775 19.2678 17.0911 18.8495 16.5814L8.36468 4.01956C8.33861 3.98865 8.30488 3.96512 8.26687 3.95133C8.22885 3.93755 8.18789 3.93398 8.14806 3.941C8.10824 3.94801 8.07095 3.96536 8.03994 3.99131C8.00892 4.01725 7.98526 4.05089 7.97133 4.08885L4.56008 13.3154C4.4893 13.5061 4.67704 13.6909 4.86328 13.6149L9.04931 11.9052C9.28531 11.8095 9.53853 11.7636 9.79309 11.7704C10.0476 11.7772 10.2981 11.8365 10.5286 11.9447C10.7592 12.0528 10.9649 12.2074 11.1328 12.3988C11.3008 12.5902 11.4274 12.8143 11.5048 13.0569C11.8139 14.0052 11.2939 15.0296 10.3784 15.4036L4.91022 17.6363C3.89779 18.0497 2.73488 17.9767 1.82303 17.3681C1.20163 16.9528 0.738349 16.3402 0.508013 15.6292C0.277677 14.9182 0.293733 14.1503 0.553587 13.4495L4.58392 2.55196C5.06145 1.26017 6.14911 0.348315 7.4938 0.112902C8.14864 -0.00444982 8.82292 0.0548245 9.44724 0.284624C10.0716 0.514423 10.6234 0.906445 11.0459 1.42034L17.0638 8.63172L22.599 6.37071C23.8289 5.8686 25.1833 6.13754 26.1331 7.07323ZM22.9409 10.6953C23.0109 10.5046 22.8232 10.3198 22.637 10.3966L19.5788 11.6452L21.413 13.8436C21.439 13.8749 21.4728 13.8987 21.511 13.9128C21.5492 13.9268 21.5904 13.9304 21.6305 13.9234C21.6705 13.9164 21.708 13.8989 21.7392 13.8727C21.7703 13.8465 21.794 13.8126 21.8078 13.7743L22.9402 10.6953H22.9409Z" fill="url(#paint0_linear_1_1332)"/>
<defs>
<linearGradient id="paint0_linear_1_1332" x1="0.346252" y1="0.0541992" x2="16.8284" y2="24.7819" gradientUnits="userSpaceOnUse">
<stop stop-color="#FF4244"/>
<stop offset="1" stop-color="#FF8E3C"/>
</linearGradient>
</defs>
</svg>
