<svg width="103" height="21" viewBox="0 0 103 21" fill="none" xmlns="http://www.w3.org/2000/svg">
<path fill-rule="evenodd" clip-rule="evenodd" d="M99.6226 15.3165C99.6838 16.0158 100.243 16.9058 101.213 16.9058H101.779C101.999 16.9058 102.179 16.7257 102.179 16.5057V4.03685H102.177C102.166 3.82679 101.992 3.65855 101.779 3.65855H100.023C99.8099 3.65855 99.6363 3.82679 99.6253 4.03685H99.6226V5.05002C98.5461 3.72325 96.8492 3.17256 95.1477 3.17256C91.2793 3.17256 88.1437 6.31071 88.1437 10.182C88.1437 14.0536 91.2793 17.1918 95.1477 17.1918C96.8492 17.1918 98.7042 16.5314 99.6226 15.315V15.3165ZM95.154 14.7386C92.6941 14.7386 90.6998 12.6987 90.6998 10.182C90.6998 7.66581 92.6941 5.62586 95.154 5.62586C97.6149 5.62586 99.6088 7.66581 99.6088 10.182C99.6088 12.6987 97.6149 14.7386 95.154 14.7386Z" fill="white"/>
<path fill-rule="evenodd" clip-rule="evenodd" d="M85.922 9.29322C85.922 5.65619 83.6295 3.2026 79.9734 3.2026C78.2282 3.2026 76.7975 4.21258 76.2922 5.08017C76.183 4.40178 75.8231 3.6887 74.7071 3.6887H74.1382C73.9182 3.6887 73.7385 3.86896 73.7385 4.08892V15.3477C73.7385 15.3481 73.7385 15.3489 73.7385 15.3495V16.5589H73.7407C73.7522 16.7686 73.926 16.937 74.1384 16.937H75.8952C75.9221 16.937 75.9485 16.9338 75.974 16.9289C75.9856 16.9266 75.9964 16.922 76.0077 16.9188C76.0208 16.9148 76.0344 16.9117 76.0468 16.9066C76.0624 16.9001 76.0766 16.8914 76.0911 16.8833C76.0983 16.8789 76.1058 16.8759 76.1126 16.8713C76.1302 16.86 76.1462 16.8464 76.1618 16.8325C76.1643 16.8299 76.1673 16.8282 76.1699 16.8258C76.1874 16.8089 76.2034 16.7903 76.2174 16.7709C76.2614 16.7105 76.2882 16.6374 76.2926 16.5589H76.2949V9.19315C76.2949 7.23984 77.8773 5.65619 79.8293 5.65619C81.7812 5.65619 83.3637 7.23984 83.3637 9.19315L83.3653 15.3499L83.3657 15.3477C83.3657 15.3532 83.3666 15.3588 83.3666 15.3646V16.5589H83.369C83.3806 16.7686 83.5541 16.937 83.7665 16.937H85.5233C85.5504 16.937 85.5766 16.9338 85.602 16.9289C85.6124 16.927 85.622 16.9228 85.6323 16.9199C85.6466 16.9157 85.6614 16.9122 85.6752 16.9066C85.6896 16.9006 85.7026 16.8923 85.7162 16.8847C85.7246 16.88 85.7332 16.8766 85.7412 16.8713C85.7574 16.8606 85.7723 16.8477 85.7869 16.835C85.7905 16.8316 85.7947 16.829 85.7982 16.8255C85.8149 16.8094 85.8297 16.7921 85.8433 16.7739C85.8443 16.7725 85.8454 16.7714 85.8464 16.7701C85.8897 16.7102 85.9162 16.6379 85.9208 16.5599C85.9208 16.5593 85.9209 16.5589 85.9209 16.5589H85.9233L85.922 9.29322Z" fill="white"/>
<path fill-rule="evenodd" clip-rule="evenodd" d="M67.6264 15.3165C67.6878 16.0157 68.2472 16.9058 69.2162 16.9058H69.7831C70.0029 16.9058 70.1828 16.7257 70.1828 16.5057V4.03685H70.1805C70.1691 3.82679 69.9953 3.65855 69.7831 3.65855H68.0263C67.8139 3.65855 67.6403 3.82679 67.6284 4.03685H67.6264V5.05002C66.55 3.72325 64.8529 3.17256 63.1512 3.17256C59.283 3.17256 56.1474 6.3107 56.1474 10.1821C56.1474 14.0536 59.283 17.1919 63.1512 17.1919C64.8529 17.1919 66.7076 16.5315 67.6263 15.3149L67.6264 15.3165ZM63.158 14.7386C60.6981 14.7386 58.7036 12.6988 58.7036 10.1821C58.7036 7.66581 60.6981 5.62586 63.158 5.62586C65.6183 5.62586 67.6124 7.66581 67.6124 10.1821C67.6124 12.6988 65.6183 14.7386 63.158 14.7386Z" fill="white"/>
<path fill-rule="evenodd" clip-rule="evenodd" d="M45.7585 13.5307C46.9312 14.3438 48.2114 14.7388 49.4416 14.7388C50.6135 14.7388 51.8251 14.1307 51.8251 13.0723C51.8251 11.6594 49.1851 11.4396 47.5263 10.8754C45.8672 10.3112 44.4383 9.14486 44.4383 7.25611C44.4383 4.36601 47.0115 3.17236 49.4131 3.17236C50.9348 3.17236 52.5048 3.67454 53.5227 4.39389C53.8732 4.65972 53.6598 4.96491 53.6598 4.96491L52.6881 6.35372C52.5789 6.51015 52.3879 6.6453 52.1139 6.47599C51.8397 6.3068 50.8783 5.62574 49.4131 5.62574C47.9478 5.62574 47.0651 6.30296 47.0651 7.14235C47.0651 8.14893 48.2123 8.46551 49.556 8.80858C51.8976 9.44024 54.452 10.1995 54.452 13.0723C54.452 15.6188 52.0719 17.1924 49.4416 17.1924C47.4483 17.1924 45.7512 16.6238 44.3278 15.5785C44.0313 15.2815 44.2384 15.0057 44.2384 15.0057L45.2053 13.6239C45.402 13.3656 45.65 13.4557 45.7585 13.5307Z" fill="white"/>
<path fill-rule="evenodd" clip-rule="evenodd" d="M39.0047 15.3165C39.0661 16.0157 39.6254 16.9058 40.5943 16.9058H41.1613C41.3811 16.9058 41.5612 16.7257 41.5612 16.5057V4.03685H41.5588C41.5472 3.82679 41.3737 3.65855 41.1613 3.65855H39.4046C39.1921 3.65855 39.0186 3.82679 39.0068 4.03685H39.0047V5.05002C37.9283 3.72325 36.2313 3.17256 34.5295 3.17256C30.6614 3.17256 27.5255 6.3107 27.5255 10.1821C27.5255 14.0536 30.6614 17.1919 34.5295 17.1919C36.2313 17.1919 38.0858 16.5315 39.0044 15.3149L39.0047 15.3165ZM34.5363 14.7386C32.0762 14.7386 30.0818 12.6988 30.0818 10.1821C30.0818 7.66581 32.0762 5.62586 34.5363 5.62586C36.9964 5.62586 38.9906 7.66581 38.9906 10.1821C38.9906 12.6988 36.9964 14.7386 34.5363 14.7386Z" fill="white"/>
<path fill-rule="evenodd" clip-rule="evenodd" d="M17.7061 10.6594C15.103 10.6594 12.9927 12.7696 12.9927 15.3729C12.9927 17.9761 15.103 20.0864 17.7061 20.0864C20.3092 20.0864 22.4195 17.9761 22.4195 15.3729C22.4195 12.7696 20.3092 10.6594 17.7061 10.6594ZM5.46035 10.6598C2.85724 10.6598 0.746964 12.7696 0.746964 15.3729C0.746964 17.9761 2.85724 20.0864 5.46035 20.0864C8.06357 20.0864 10.174 17.9761 10.174 15.3729C10.174 12.7696 8.06357 10.6598 5.46035 10.6598ZM16.2965 4.76749C16.2965 7.37081 14.1864 9.48128 11.5832 9.48128C8.98003 9.48128 6.86986 7.37081 6.86986 4.76749C6.86986 2.16469 8.98003 0.0541992 11.5832 0.0541992C14.1864 0.0541992 16.2965 2.16469 16.2965 4.76749Z" fill="#F06A6A"/>
</svg>
