<svg width="72" height="72" viewBox="0 0 72 72" fill="none" xmlns="http://www.w3.org/2000/svg">
<g id="aws-svgrepo-com 1" clip-path="url(#clip0_1_1069)">
<path id="Vector" d="M20.0348 34.6254C20.0348 35.4902 20.1236 36.1926 20.2923 36.7106C20.4787 37.2242 20.7184 37.7861 21.0468 38.3963C21.1516 38.5575 21.2085 38.7446 21.2111 38.9363C21.2111 39.1689 21.069 39.406 20.7672 39.6386L19.2758 40.622C19.0968 40.7498 18.8839 40.823 18.6633 40.8327C18.4236 40.8327 18.1884 40.7185 17.9531 40.5078C17.6341 40.1683 17.3487 39.7993 17.1009 39.406C16.8369 38.9556 16.5925 38.4943 16.3685 38.0232C14.5265 40.1786 12.214 41.2585 9.42656 41.2585C7.44251 41.2585 5.85793 40.6922 4.70389 39.5684C3.54541 38.4446 2.95508 36.9433 2.95508 35.0688C2.95508 33.0758 3.66525 31.4604 5.10336 30.24C6.54591 29.0196 8.45895 28.4138 10.8913 28.4138C11.6903 28.4138 12.5203 28.4841 13.3947 28.5982C14.2691 28.7167 15.1701 28.9055 16.1111 29.1162V27.4042C16.1111 25.6219 15.7338 24.3796 15.0015 23.6553C14.2469 22.9266 12.9686 22.5754 11.1487 22.5754C10.3232 22.5754 9.47539 22.6719 8.60098 22.8827C7.73223 23.0871 6.87933 23.3527 6.04879 23.6772C5.78064 23.7973 5.50486 23.8999 5.2232 23.9845C5.10116 24.0244 4.97428 24.048 4.84592 24.0547C4.51303 24.0547 4.3488 23.8177 4.3488 23.326V22.1759C4.3488 21.8028 4.39319 21.5174 4.51303 21.3594C4.69189 21.144 4.92014 20.9739 5.17882 20.8633C5.99996 20.4419 6.99421 20.0907 8.15268 19.8098C9.30672 19.5025 10.5362 19.3664 11.8367 19.3664C14.6464 19.3664 16.7014 19.9985 18.0241 21.2628C19.3247 22.5271 19.986 24.4498 19.986 27.031V34.6254H20.0304H20.0348ZM10.443 38.1856C11.2198 38.1856 12.0231 38.0451 12.8754 37.7642C13.7231 37.4832 14.4821 36.9652 15.1169 36.2629C15.4975 35.8316 15.7724 35.3194 15.9202 34.7659C16.0623 34.1996 16.1599 33.5236 16.1599 32.7247V31.7413C15.443 31.5694 14.7169 31.4375 13.985 31.3462C13.249 31.2521 12.5078 31.2037 11.7657 31.2014C10.1811 31.2014 9.02265 31.5087 8.24589 32.1408C7.4647 32.7729 7.09186 33.6641 7.09186 34.8362C7.09186 35.9336 7.37149 36.7545 7.96182 37.3208C8.52997 37.9046 9.35555 38.1856 10.443 38.1856ZM29.4092 40.7185C28.9831 40.7185 28.699 40.6483 28.5126 40.4815C28.3217 40.341 28.1575 40.0162 28.0154 39.5684L22.4672 21.4516C22.3578 21.1479 22.2848 20.8326 22.2497 20.5121C22.2497 20.139 22.4406 19.9283 22.8178 19.9283H25.1348C25.5786 19.9283 25.8893 19.9985 26.0536 20.161C26.2444 20.3014 26.3865 20.6307 26.5285 21.074L30.4966 36.5921L34.1807 21.074C34.2961 20.6087 34.4381 20.3014 34.6245 20.161C34.9093 19.9884 35.2411 19.9072 35.5744 19.9283H37.4608C37.9135 19.9283 38.2154 19.9985 38.4062 20.161C38.5971 20.3014 38.7613 20.6307 38.8545 21.074L42.5874 36.7809L46.6709 21.074C46.7466 20.7342 46.9103 20.4195 47.1458 20.161C47.4208 19.9886 47.7442 19.9071 48.0691 19.9283H50.2662C50.6434 19.9283 50.8565 20.1171 50.8565 20.5121C50.8565 20.6307 50.8299 20.7492 50.8121 20.8897C50.774 21.089 50.7175 21.2844 50.6434 21.4735L44.9487 39.5903C44.8067 40.0601 44.6425 40.3673 44.456 40.5078C44.188 40.6774 43.8726 40.7588 43.555 40.7405H41.5266C41.0783 40.7405 40.772 40.6702 40.5811 40.5078C40.3903 40.341 40.226 40.0381 40.1328 39.5684L36.471 24.4542L32.8313 39.5508C32.7159 40.0205 32.5739 40.3234 32.3875 40.4859C32.1966 40.6527 31.8637 40.7229 31.442 40.7229H29.4092V40.7185ZM59.7603 41.3507C58.5346 41.3523 57.3129 41.2108 56.1207 40.9292C54.94 40.6483 54.0212 40.341 53.4043 39.9898C53.027 39.7791 52.7695 39.5464 52.6719 39.3313C52.5817 39.1248 52.5348 38.9023 52.5343 38.6773V37.4832C52.5343 36.9916 52.7207 36.7545 53.0758 36.7545C53.2208 36.7548 53.3647 36.7786 53.5019 36.8247C53.6439 36.873 53.857 36.9652 54.0922 37.0618C54.8912 37.413 55.77 37.6939 56.6888 37.8827C57.6342 38.0671 58.553 38.1636 59.4985 38.1636C60.9898 38.1636 62.1439 37.9046 62.9473 37.391C63.3332 37.16 63.6503 36.8319 63.8663 36.4401C64.0823 36.0484 64.1894 35.607 64.1768 35.161C64.1847 34.8599 64.1324 34.5601 64.0227 34.2791C63.913 33.9981 63.7481 33.7413 63.5376 33.5236C63.1159 33.0758 62.3125 32.6764 61.1541 32.3032L57.7275 31.2497C56.0053 30.7097 54.727 29.9108 53.9502 28.8572C53.1898 27.8837 52.7749 26.6896 52.7695 25.4595C52.7695 24.4762 52.9826 23.607 53.4043 22.8563C53.8304 22.11 54.3985 21.4516 55.1087 20.9336C55.8189 20.398 56.6178 19.9985 57.5632 19.7176C58.5087 19.4366 59.4985 19.3181 60.5371 19.3181C61.0608 19.3181 61.6024 19.3401 62.1217 19.4103C62.6632 19.4805 63.1603 19.5771 63.6574 19.6737C64.1279 19.7878 64.5807 19.902 65.0023 20.0468C65.4284 20.1873 65.7569 20.3278 65.9966 20.4683C66.2753 20.6067 66.5182 20.8064 66.7068 21.0521C66.8587 21.2807 66.9319 21.5517 66.9154 21.8247V22.9266C66.9154 23.4182 66.7289 23.6772 66.3739 23.6772C66.0595 23.6417 65.755 23.5463 65.4773 23.3963C64.0499 22.7704 62.5021 22.4588 60.941 22.4832C59.5961 22.4832 58.5308 22.6939 57.7985 23.1417C57.0661 23.5806 56.6888 24.2655 56.6888 25.2268C56.6888 25.8809 56.9241 26.4428 57.399 26.8906C57.8695 27.3339 58.7439 27.7773 59.9956 28.1768L63.3512 29.2303C65.0512 29.7703 66.2806 30.521 67.013 31.4823C67.7454 32.4437 68.096 33.5455 68.096 34.7659C68.096 35.7756 67.8874 36.6843 67.4835 37.4832C67.0653 38.2849 66.478 38.9885 65.7613 39.5464C65.029 40.1303 64.1546 40.5561 63.1381 40.859C62.0728 41.1882 60.9632 41.3507 59.7603 41.3507Z" fill="white"/>
<g id="Group">
<path id="Vector_2" fill-rule="evenodd" clip-rule="evenodd" d="M64.2217 52.7377C56.4541 58.4313 45.1623 61.4559 35.4551 61.4559C21.8508 61.4559 9.59134 56.4647 0.33241 48.1679C-0.39996 47.5095 0.261392 46.6183 1.13136 47.1363C11.1493 52.9002 23.5019 56.3945 36.2851 56.3945C44.9004 56.3945 54.3724 54.6122 63.0898 50.9555C64.3903 50.3716 65.5 51.7983 64.2217 52.7377Z" fill="#FF9900"/>
<path id="Vector_3" fill-rule="evenodd" clip-rule="evenodd" d="M67.4578 49.0811C66.468 47.8212 60.8931 48.4753 58.3676 48.7782C57.613 48.8748 57.4931 48.2163 58.1767 47.7246C62.6153 44.6298 69.9168 45.5209 70.7646 46.5525C71.6168 47.6061 70.5293 54.8493 66.3704 58.3173C65.7356 58.8572 65.1231 58.5807 65.4027 57.8783C66.3482 55.5517 68.4521 50.3278 67.4578 49.0855V49.0811Z" fill="#FF9900"/>
</g>
</g>
<defs>
<clipPath id="clip0_1_1069">
<rect width="71.0177" height="70.2373" fill="white" transform="translate(0.0175781 0.880859)"/>
</clipPath>
</defs>
</svg>
