<svg width="130" height="23" viewBox="0 0 130 23" fill="none" xmlns="http://www.w3.org/2000/svg">
<g id="Frame" clip-path="url(#clip0_1_787)">
<g id="Group">
<path id="Vector" d="M72.2665 0C72.6299 0.206563 72.6622 0.532297 72.6622 0.905699C72.6461 2.05769 72.6542 3.20967 72.6542 4.44111C73.3165 4.16304 73.8415 3.81347 74.4715 3.6943C76.1192 3.37651 77.5731 3.96442 78.2435 5.45009C79.0189 7.1582 79.035 8.93782 78.1627 10.6142C77.2096 12.4494 75.0934 12.9976 73.2519 11.9807C72.8803 11.7741 72.6138 11.3848 72.2584 12.0919C72.0484 12.513 71.3861 12.3064 70.9499 12.2269C70.4814 12.1475 70.6672 11.6867 70.6672 11.3927C70.651 7.59516 70.6511 3.79758 70.6511 0C71.1922 0 71.7253 0 72.2665 0Z" fill="white"/>
<path id="Vector_2" d="M63.5823 0C63.7923 0.270121 63.8246 0.579965 63.8246 0.913644C63.8165 4.40933 63.8246 7.90501 63.8084 11.4007C63.8084 11.6946 63.9861 12.1793 63.5257 12.2269C63.0411 12.2826 62.3788 12.5686 62.0718 11.9727C61.8538 11.5516 61.7407 11.6629 61.4418 11.8218C58.7522 13.2756 56.4098 12.1793 55.8283 9.22383C55.6264 8.19102 55.6991 7.18204 56.006 6.19689C56.7087 3.94853 58.8572 3.00311 61.038 3.96442C61.248 4.05976 61.4499 4.16304 61.8134 4.33782C61.8134 3.16995 61.8215 2.10535 61.8053 1.04076C61.7972 0.643523 61.7972 0.270121 62.1526 0C62.6453 0 63.1138 0 63.5823 0Z" fill="white"/>
<path id="Vector_3" d="M0.000264542 3.76567C0.0971891 3.7895 0.234499 3.77361 0.282961 3.82922C1.05836 4.78259 1.77721 4.0199 2.5203 3.7895C4.60418 3.16187 6.39728 4.08346 7.01114 6.14114C7.40691 7.46791 7.39076 8.81057 6.86575 10.1215C6.00958 12.2824 3.88532 13.0689 1.76914 12.0282C1.59952 11.9408 1.4299 11.8375 1.1472 11.6786C1.1472 12.7114 1.09067 13.6251 1.16336 14.5308C1.23605 15.4365 0.945279 15.8417 -0.0078125 15.6748C0.000264542 11.6945 0.000264542 7.73009 0.000264542 3.76567Z" fill="white"/>
<path id="Vector_4" d="M130.001 19.4328C129.557 19.9651 129.282 20.6166 128.717 21.0615C128.523 21.2204 128.329 21.5302 128.047 21.3236C127.828 21.1647 128.006 20.9026 128.087 20.6881C128.467 19.6711 128.878 18.6621 129.08 17.5896C129.266 16.6045 129.056 16.3185 128.063 16.2231C126.924 16.1119 125.785 16.239 124.654 16.3264C124.428 16.3423 124.129 16.4853 124.032 16.2152C123.911 15.8974 124.234 15.7703 124.46 15.6511C126.213 14.7216 128.063 14.4991 130.009 14.8884C130.001 16.39 130.001 17.9074 130.001 19.4328Z" fill="#FE9903"/>
<path id="Vector_5" d="M110.219 22.9999C110.227 22.9443 110.219 22.8808 110.203 22.8252C111.56 22.2849 112.917 22.277 114.274 22.8252C114.258 22.8808 114.25 22.9364 114.258 22.992C112.909 22.9999 111.56 22.9999 110.219 22.9999Z" fill="#FED08B"/>
<path id="Vector_6" d="M112.828 4.19487C112.441 5.75998 112.053 7.31715 111.665 8.88226C111.479 9.62112 111.31 10.36 111.124 11.0988C110.882 12.0681 109.848 12.5289 108.895 12.1078C108.604 11.9807 108.531 11.7265 108.459 11.4802C107.497 8.38969 106.536 5.29919 105.599 2.20074C105.51 1.90678 105.357 1.43804 105.882 1.43804C106.552 1.44599 107.465 1.01697 107.756 2.05773C108.144 3.42423 108.467 4.80661 108.83 6.18105C109.113 7.28537 109.404 8.38174 109.888 9.494C110.179 8.33407 110.478 7.17414 110.761 6.00627C111.059 4.79072 111.374 3.57518 111.617 2.34374C111.762 1.61283 112.117 1.36654 112.861 1.38243C113.563 1.39832 114.072 1.45393 114.258 2.28813C114.751 4.54444 115.324 6.78485 115.865 9.03321C115.914 9.24772 115.889 9.50195 116.204 9.69262C116.843 7.26153 117.465 4.85428 118.103 2.45497C118.224 1.99418 118.28 1.47777 118.959 1.39038C120.396 1.1997 120.574 1.41421 120.138 2.7807C119.233 5.57725 118.321 8.3738 117.505 11.1942C117.222 12.1714 116.608 12.1317 115.833 12.1714C114.993 12.2111 114.831 11.7265 114.678 11.1068C114.129 8.80281 113.555 6.50678 112.998 4.20281C112.941 4.20281 112.885 4.19487 112.828 4.19487Z" fill="white"/>
<path id="Vector_7" d="M114.275 22.8332C112.918 22.8332 111.561 22.8332 110.204 22.8332C104.252 22.3724 99.0096 20.2273 94.4865 16.4059C94.2523 16.2073 93.7999 15.9849 94.0342 15.6353C94.3249 15.1983 94.6965 15.6114 94.9953 15.7624C105.108 21.0377 115.503 21.7368 126.205 17.685C126.391 17.6135 126.577 17.5182 126.77 17.4785C127.069 17.407 127.4 17.3752 127.554 17.7168C127.699 18.0346 127.554 18.2968 127.271 18.4795C126.512 18.9562 125.769 19.4805 124.969 19.8937C121.617 21.6177 118.039 22.5551 114.275 22.8332Z" fill="#FE9800"/>
<path id="Vector_8" d="M102.441 10.8527C101.529 11.7664 100.471 12.3463 99.1703 12.4417C97.2802 12.5847 95.7779 11.5598 95.5114 9.92319C95.1964 8.0244 96.2787 6.41956 98.1526 5.95877C99.3237 5.66481 100.495 5.7681 101.65 6.01438C102.256 6.1415 102.312 5.96672 102.328 5.4662C102.385 3.53563 101.585 2.74115 99.6064 2.81266C98.7907 2.84444 98.0233 3.05894 97.256 3.32112C96.9491 3.4244 96.5049 3.85342 96.3191 3.37673C96.1495 2.93977 96.0283 2.33597 96.5856 1.93874C97.9668 0.961534 101.456 0.850307 102.886 1.74806C103.96 2.42336 104.307 3.47207 104.348 4.632C104.396 5.95083 104.388 7.26965 104.372 8.58848C104.364 9.32734 104.396 10.0503 104.8 10.6859C105.277 11.4486 104.614 11.6234 104.186 11.957C103.677 12.3463 103.322 12.1716 103.015 11.7266C102.805 11.4645 102.643 11.1785 102.441 10.8527Z" fill="white"/>
<path id="Vector_9" d="M26.9781 9.97074C27.4546 8.21495 27.9231 6.46711 28.4077 4.71927C28.6258 3.9248 29.5223 3.52756 30.2654 3.86124C30.6208 4.02013 30.54 4.27437 30.4593 4.5286C29.6516 6.93585 28.8196 9.3431 28.0119 11.7504C27.7454 12.5369 27.0911 12.2112 26.5742 12.2827C26.025 12.3621 25.7988 12.092 25.6696 11.5994C25.2738 10.0661 24.8457 8.54069 24.4419 7.0153C24.3853 6.79285 24.3773 6.5545 24.0946 6.38766C23.6422 8.11167 23.1657 9.81184 22.7457 11.5279C22.6003 12.1238 22.3015 12.3462 21.6876 12.2906C21.1061 12.2429 20.5326 12.4098 20.2822 11.5676C19.6118 9.32722 18.8283 7.11858 18.1095 4.88611C17.9964 4.54449 17.5522 3.95658 18.2872 3.88507C18.8768 3.82946 19.7653 3.40045 20.056 4.42532C20.4599 5.85537 20.8153 7.29336 21.203 8.73136C21.2676 8.98559 21.3564 9.23188 21.4291 9.47817C21.9138 9.3431 21.9299 8.95381 22.0188 8.62013C22.3742 7.28542 22.7699 5.9507 23.0769 4.6001C23.2222 3.89302 23.6342 3.81357 24.2319 3.81357C24.8296 3.81357 25.2334 3.89302 25.395 4.59216C25.7584 6.16521 26.2108 7.72238 26.6308 9.27955C26.6954 9.53378 26.6792 9.81979 26.9781 9.97074Z" fill="white"/>
<path id="Vector_10" d="M124.985 12.4731C124.024 12.489 123.168 12.3142 122.336 12.052C122.053 11.9646 121.754 11.8375 121.536 11.6468C121.084 11.2655 121.157 10.7014 121.351 10.2724C121.544 9.85131 121.948 10.2168 122.223 10.3201C123.346 10.7332 124.501 10.8841 125.688 10.7332C126.471 10.6299 127.15 10.3439 127.279 9.47791C127.408 8.57221 126.746 8.20675 126.027 7.92869C125.09 7.57118 124.089 7.40434 123.176 6.96738C122.045 6.42713 121.399 5.56116 121.367 4.32972C121.334 3.09035 121.981 2.18465 123.087 1.63646C124.767 0.810208 126.471 1.00883 128.159 1.65235C128.628 1.82713 128.773 2.20848 128.765 2.68517C128.749 3.26513 128.571 3.47964 127.966 3.20952C127.061 2.81228 126.092 2.68517 125.106 2.7805C124.355 2.852 123.596 3.0109 123.442 3.92454C123.289 4.84613 123.943 5.22748 124.662 5.4976C125.478 5.7995 126.326 6.02195 127.142 6.32385C128.66 6.88793 129.395 7.85719 129.363 9.16012C129.331 10.5266 128.426 11.6786 126.988 12.1632C126.318 12.4016 125.623 12.5049 124.985 12.4731Z" fill="white"/>
<path id="Vector_11" d="M12.9159 12.5048C10.307 12.5048 8.76432 10.8602 8.74817 8.08753C8.73202 5.3307 10.299 3.62259 12.8675 3.6067C15.5167 3.58286 17.0837 5.2592 17.0675 8.08753C17.0433 10.9 15.5329 12.5048 12.9159 12.5048Z" fill="white"/>
<path id="Vector_12" d="M83.8634 10.1134C84.4853 8.27817 85.0992 6.44294 85.7211 4.6077C85.9472 3.9324 87.0861 3.51928 87.6596 3.90062C88.0715 4.17869 87.7646 4.49648 87.6596 4.77454C86.763 7.07852 85.8503 9.39043 84.9295 11.6865C84.5499 12.6398 84.1945 13.6011 83.718 14.5068C83.1284 15.635 81.8845 16.0958 80.6406 15.8177C80.0591 15.6906 79.9218 15.3649 79.9379 14.8246C79.9622 14.1652 80.4145 14.3241 80.7941 14.3082C82.2076 14.2606 83.0637 13.0212 82.5468 11.7023C81.6664 9.45399 80.7537 7.22152 79.8895 4.97316C79.7602 4.63154 79.1383 4.04363 79.9379 3.88473C80.5356 3.77351 81.4403 3.39216 81.7876 4.4647C82.3933 6.3476 83.0314 8.22256 83.6534 10.0975C83.7261 10.1055 83.7988 10.1134 83.8634 10.1134Z" fill="white"/>
<path id="Vector_13" d="M35.9596 8.54065C35.2892 8.54065 34.6107 8.58832 33.9403 8.53271C33.2053 8.46915 33.173 8.81077 33.3345 9.35101C33.6253 10.3362 34.328 10.8049 35.3215 10.9002C36.1615 10.9797 36.9934 10.9082 37.8254 10.7096C38.1081 10.646 38.5362 10.3521 38.625 10.9002C38.6896 11.2975 38.7946 11.7583 38.3181 12.0602C35.7173 13.7206 31.8564 12.0284 31.4364 9.05706C31.3153 8.22286 31.3637 7.40456 31.5334 6.59419C32.0745 4.03599 35.1115 2.741 37.4054 4.05982C38.5846 4.73513 39.2954 6.98348 38.7462 8.23081C38.6008 8.55654 38.3504 8.54065 38.0838 8.54065C37.3731 8.54065 36.6623 8.54065 35.9596 8.54065Z" fill="white"/>
<path id="Vector_14" d="M51.3711 8.54077C50.6684 8.54077 49.9576 8.57255 49.2549 8.53283C48.633 8.4931 48.6088 8.77911 48.7218 9.24785C48.9561 10.2012 49.6426 10.7891 50.7411 10.8924C51.5488 10.9719 52.3484 10.9004 53.14 10.7335C53.4469 10.67 53.9719 10.2489 54.0769 10.956C54.1496 11.4406 54.1981 11.9491 53.5034 12.1397C51.6699 12.6323 49.8284 12.9024 48.213 11.6551C46.5976 10.4157 46.6056 8.58844 46.9045 6.8406C47.3487 4.25856 49.7799 2.95562 52.308 3.81366C53.8346 4.33801 54.8765 6.84854 54.1577 8.23887C53.9961 8.54872 53.7458 8.53283 53.4873 8.53283C52.7846 8.54077 52.0738 8.54077 51.3711 8.54077Z" fill="white"/>
<path id="Vector_15" d="M42.6143 5.02924C43.4623 4.36982 44.1247 3.81369 45.0616 3.77397C45.7724 3.74219 45.9097 4.09176 45.8935 4.68761C45.8855 5.22785 45.9016 5.71248 45.1181 5.57742C44.9243 5.54564 44.7143 5.56153 44.5124 5.57742C43.002 5.70454 42.7516 5.96671 42.7516 7.44443C42.7516 8.76326 42.7031 10.09 42.7677 11.4089C42.8162 12.2589 42.3639 12.2669 41.7258 12.2907C41.015 12.3146 40.7081 12.1636 40.7323 11.3771C40.7888 9.26378 40.7323 7.15048 40.7646 5.02924C40.7727 4.58433 40.4173 3.90903 41.33 3.81369C42.1539 3.74219 42.6546 3.98053 42.6143 5.02924Z" fill="white"/>
<path id="Vector_16" d="M72.6524 8.02422C72.6524 7.65876 72.6524 7.30125 72.6524 6.93579C72.6524 5.64874 72.8543 5.4104 74.1144 5.18795C75.2128 4.99728 76.174 5.45013 76.489 6.37966C76.8525 7.46809 76.8606 8.59624 76.4809 9.67672C76.0205 10.9797 73.767 11.361 72.814 10.3441C72.6201 10.1375 72.6686 9.92301 72.6605 9.70056C72.6443 9.14443 72.6524 8.58035 72.6524 8.02422Z" fill="#080716"/>
<path id="Vector_17" d="M61.8301 8.11966C61.8301 8.45334 61.7897 8.78702 61.8382 9.10481C61.9997 10.0979 61.5959 10.6381 60.5862 10.8288C59.4877 11.0354 58.5508 10.7494 58.1712 9.89928C57.6219 8.66785 57.6058 7.3808 58.1631 6.15731C58.672 5.04505 60.8851 4.79082 61.6928 5.68858C61.8705 5.88719 61.8301 6.11759 61.8301 6.34799C61.8301 6.92795 61.8301 7.52381 61.8301 8.11966Z" fill="#080716"/>
<path id="Vector_18" d="M1.15456 7.97648C1.15456 7.6428 1.15456 7.31707 1.15456 6.98339C1.15456 5.64867 1.33226 5.42622 2.57612 5.19582C3.69075 4.98926 4.57923 5.41827 4.95077 6.37959C5.32232 7.33295 5.33039 8.32605 5.06385 9.30325C4.64384 10.8843 2.75382 11.4563 1.42918 10.4473C1.17072 10.2487 1.14648 10.0262 1.14648 9.7561C1.15456 9.16024 1.15456 8.56439 1.15456 7.97648Z" fill="#080716"/>
<path id="Vector_19" d="M99.397 10.7968C98.3712 10.7968 97.8058 10.3757 97.6604 9.50971C97.4908 8.48483 97.935 7.68242 98.8962 7.42819C99.8897 7.16601 100.891 7.27724 101.885 7.45202C102.297 7.52352 102.297 7.7857 102.313 8.10349C102.361 9.70832 101.182 10.8047 99.397 10.7968Z" fill="#080716"/>
<path id="Vector_20" d="M14.998 7.80157C14.9819 8.63576 14.9819 9.22367 14.7234 9.78775C14.3519 10.6219 13.7057 10.9715 12.8091 10.9397C11.9368 10.908 11.3553 10.5028 11.0726 9.68447C10.7414 8.71521 10.7495 7.73006 10.9676 6.75286C11.1937 5.72005 11.8803 5.17186 12.8657 5.15597C13.8672 5.13214 14.6265 5.72005 14.8849 6.76081C14.9819 7.17393 14.9819 7.61089 14.998 7.80157Z" fill="#080716"/>
<path id="Vector_21" d="M35.1039 7.22961C34.8697 7.22961 34.6354 7.25344 34.4012 7.22167C34.0297 7.174 33.4885 7.44412 33.327 7.0151C33.1573 6.58609 33.4723 6.13324 33.7712 5.76778C34.3124 5.10837 35.0312 4.92564 35.8389 5.11631C36.5416 5.28315 36.8405 5.78367 36.9939 6.45103C37.1474 7.09455 36.9293 7.28522 36.2993 7.22961C35.9116 7.20578 35.5078 7.22961 35.1039 7.22961Z" fill="#080716"/>
<path id="Vector_22" d="M50.594 7.24566C50.2628 7.24566 49.9236 7.24566 49.5924 7.24566C48.5505 7.23772 48.4374 7.0391 48.9624 6.12545C49.4228 5.32304 50.1174 4.97347 51.0463 5.07675C51.8136 5.16414 52.2255 5.62494 52.4194 6.32407C52.5971 6.94376 52.5082 7.34894 51.7005 7.26155C51.329 7.20594 50.9574 7.24566 50.594 7.24566Z" fill="#080716"/>
</g>
</g>
<defs>
<clipPath id="clip0_1_787">
<rect width="130" height="23" fill="white"/>
</clipPath>
</defs>
</svg>
