<svg width="61" height="72" viewBox="0 0 61 72" fill="none" xmlns="http://www.w3.org/2000/svg">
<g id="figma-5 1" clip-path="url(#clip0_1_1096)">
<path id="Vector" d="M24.7148 36.0132C24.7148 29.423 30.1017 24.0532 36.7737 24.0532C43.4184 24.0532 48.8325 29.3959 48.8325 36.0132C48.8325 42.6034 43.4457 47.9731 36.7737 47.9731C30.129 47.9731 24.7148 42.6034 24.7148 36.0132Z" fill="#1ABCFE"/>
<path id="Vector_2" d="M0.623047 59.906C0.623047 53.3158 6.00988 47.946 12.6819 47.946H24.7407V59.906C24.7407 66.4962 19.3539 71.866 12.6819 71.866C6.00988 71.866 0.623047 66.5233 0.623047 59.906Z" fill="#0ACF83"/>
<path id="Vector_3" d="M24.7148 0.160421V24.0532H36.7737C43.4184 24.0532 48.8325 18.7106 48.8325 12.0933C48.8325 5.50308 43.4457 0.133301 36.7737 0.133301H24.7148V0.160421Z" fill="#FF7262"/>
<path id="Vector_4" d="M0.623047 12.1204C0.623047 18.7105 6.00988 24.0803 12.6819 24.0803H24.7407V0.1604H12.6819C6.00988 0.1604 0.623047 5.50306 0.623047 12.1204Z" fill="#F24E1E"/>
<path id="Vector_5" d="M0.623047 36.0132C0.623047 42.6034 6.00988 47.9731 12.6819 47.9731H24.7407V24.0532H12.6819C6.00988 24.0532 0.623047 29.423 0.623047 36.0132Z" fill="#A259FF"/>
</g>
<defs>
<clipPath id="clip0_1_1096">
<rect width="60.0919" height="71.7981" fill="white" transform="translate(0.623047 0.100586)"/>
</clipPath>
</defs>
</svg>
