<svg width="141" height="29" viewBox="0 0 141 29" fill="none" xmlns="http://www.w3.org/2000/svg">
<path d="M14.0707 10.1611L23.2694 4.85138C23.153 4.75823 23.0366 4.66508 22.8968 4.59521L2.12387 10.1611C5.68695 12.2104 10.2281 12.3501 14.0707 10.1611Z" fill="#08C7FB"/>
<path d="M21.4064 4.17627H12.4638C8.03904 4.17627 4.19651 6.57494 2.12387 10.138L22.8968 4.57217C22.4544 4.33929 21.9653 4.17627 21.4064 4.17627Z" fill="#59F2F6"/>
<path d="M34.5634 0.776855C31.0469 0.776855 29.8127 3.2221 29.8127 5.50433V6.90161H29.0674C28.5318 6.90161 28.1126 7.3208 28.1126 7.85643C28.1126 8.39205 28.5318 8.81124 29.0674 8.81124H29.8127V18.4525C29.8127 19.0114 30.2551 19.4772 30.8373 19.4772C31.3963 19.4772 31.862 19.0347 31.862 18.4525V8.81124H34.121C34.6566 8.81124 35.0758 8.39205 35.0758 7.85643C35.0758 7.3208 34.6566 6.90161 34.121 6.90161H31.862V5.50433C31.862 4.22349 32.3278 2.70976 34.5867 2.70976C35.1223 2.70976 35.5415 2.29058 35.5415 1.75495C35.5182 1.19604 35.0991 0.776855 34.5634 0.776855Z" fill="white"/>
<path d="M42.4813 6.57471C40.9675 6.57471 39.6867 7.20349 38.9648 8.22816V7.69253C38.9648 7.13362 38.5223 6.66786 37.9401 6.66786C37.3812 6.66786 36.9154 7.11033 36.9154 7.69253V18.4516C36.9154 19.0105 37.3579 19.4763 37.9401 19.4763C38.499 19.4763 38.9648 19.0338 38.9648 18.4516V12.5132C38.9648 10.0213 40.2922 8.5309 42.4813 8.5309C43.0169 8.5309 43.4594 8.08843 43.4594 7.5528C43.4826 7.01718 43.0402 6.57471 42.4813 6.57471Z" fill="white"/>
<path d="M54.9401 11.8613C54.9401 11.2791 54.8469 9.76536 53.962 8.50781C53.0538 7.20367 51.6332 6.52832 49.7003 6.52832C46.1139 6.52832 44.0646 8.9037 44.0646 13.049C44.0646 17.334 46.1139 19.6162 49.9564 19.6162C52.5414 19.6162 53.962 18.3354 54.2182 18.0792C54.3812 17.9162 54.5675 17.7066 54.5675 17.3573C54.5675 16.8449 54.1483 16.4257 53.636 16.4257C53.3798 16.4257 53.2168 16.4956 53.0538 16.6121C52.3085 17.171 51.4469 17.7299 49.9797 17.7299C47.6742 17.7299 46.2071 16.2162 46.1372 13.7476H53.7058C54.9401 13.7243 54.9401 12.6065 54.9401 11.8613ZM49.7003 8.39137C51.7962 8.39137 52.8907 9.57906 52.9373 11.9079H46.1605C46.3468 9.64892 47.6044 8.39137 49.7003 8.39137Z" fill="white"/>
<path d="M61.7884 12.0245C60.2747 11.5121 58.9705 11.0464 58.9705 9.92853C58.9705 8.69426 60.3445 8.50795 61.1596 8.50795C62.6268 8.50795 63.3487 9.02029 63.9309 9.57921C64.1172 9.76551 64.3501 9.85867 64.6062 9.85867C65.1186 9.85867 65.5378 9.43948 65.5378 8.92714C65.5378 8.64769 65.4213 8.46138 65.3282 8.32165C64.4665 7.18054 62.9994 6.55176 61.1596 6.55176C58.5514 6.55176 56.9445 7.85589 56.9445 9.92853C56.9445 12.4669 59.1801 13.2354 61.1363 13.8875C62.6268 14.3998 63.9076 14.819 63.9076 15.9136C63.9076 17.404 62.2542 17.6369 61.2528 17.6369C59.9021 17.6369 58.8541 17.2177 57.9924 16.3793C57.7363 16.1232 57.4568 16.0766 57.2938 16.0766C56.7815 16.0766 56.3623 16.4958 56.3623 17.0081C56.3623 17.2177 56.4321 17.3807 56.5952 17.6136C57.3637 18.5917 59.1103 19.5931 61.2528 19.5931C64.1871 19.5931 65.9337 18.2191 65.9337 15.9368C65.9337 13.4683 63.7446 12.6998 61.7884 12.0245Z" fill="white"/>
<path d="M73.8739 6.52828C72.4767 6.52828 71.2191 7.0872 70.5205 7.97214V1.07887C70.5205 0.519959 70.078 0.0541992 69.4958 0.0541992C68.9369 0.0541992 68.4711 0.496671 68.4711 1.07887V18.4751C68.4711 19.034 68.9136 19.4997 69.4958 19.4997C70.0547 19.4997 70.5205 19.0573 70.5205 18.4751V11.9311C70.5205 9.57902 71.6616 8.39132 73.8739 8.39132C76.0164 8.39132 76.9014 9.36942 76.9014 11.7448V18.4751C76.9014 19.034 77.3439 19.4997 77.9261 19.4997C78.485 19.4997 78.9507 19.0573 78.9507 18.4751V11.3955C78.9042 8.15844 77.2041 6.52828 73.8739 6.52828Z" fill="white"/>
<path d="M95.8806 6.69189C95.4381 6.69189 95.0888 6.94806 94.9258 7.36725L92.0148 15.6578L89.6394 7.36725C89.5462 7.04121 89.1969 6.69189 88.6846 6.69189C88.1722 6.69189 87.8229 7.04121 87.7297 7.36725L85.3544 15.6345L82.4434 7.34396C82.2803 6.92477 81.931 6.69189 81.4885 6.69189C80.9296 6.69189 80.4639 7.13437 80.4639 7.71657C80.4639 7.8563 80.4872 7.99602 80.557 8.13575L84.4461 18.825C84.6091 19.2442 84.9585 19.477 85.4009 19.477C85.8667 19.477 86.2626 19.1743 86.379 18.7551L88.6613 10.907L90.9435 18.7551C91.0599 19.1743 91.4791 19.477 91.9216 19.477C92.3641 19.477 92.7134 19.2209 92.8764 18.8017L96.7655 8.11247C96.8354 7.97274 96.8587 7.80972 96.8587 7.66999C96.882 7.13436 96.4395 6.69189 95.8806 6.69189Z" fill="white"/>
<path d="M103.286 6.52832C99.5829 6.52832 97.5568 8.85713 97.5568 13.049C97.5568 17.2874 99.5829 19.6162 103.286 19.6162C106.988 19.6162 109.015 17.2874 109.015 13.049C109.015 8.83384 106.965 6.52832 103.286 6.52832ZM103.286 17.7532C100.817 17.7532 99.6062 16.2162 99.6062 13.0723C99.6062 9.97496 100.84 8.41466 103.286 8.41466C105.731 8.41466 106.965 9.97496 106.965 13.0723C106.965 16.2162 105.754 17.7532 103.286 17.7532Z" fill="white"/>
<path d="M116.887 6.57471C115.373 6.57471 114.092 7.20349 113.37 8.22816V7.69253C113.37 7.13362 112.928 6.66786 112.346 6.66786C111.787 6.66786 111.321 7.11033 111.321 7.69253V18.4516C111.321 19.0105 111.763 19.4763 112.346 19.4763C112.905 19.4763 113.37 19.0338 113.37 18.4516V12.5132C113.37 10.0213 114.698 8.5309 116.887 8.5309C117.422 8.5309 117.865 8.08843 117.865 7.5528C117.865 7.01718 117.422 6.57471 116.887 6.57471Z" fill="white"/>
<path d="M124.618 11.8845L128.834 8.50777C129.183 8.22831 129.229 7.87899 129.229 7.69268C129.229 7.13377 128.787 6.66801 128.205 6.66801C128.042 6.66801 127.762 6.6913 127.506 6.92418L121.521 11.8147V1.07887C121.521 0.519959 121.079 0.0541992 120.496 0.0541992C119.938 0.0541992 119.472 0.496671 119.472 1.07887V18.4751C119.472 19.034 119.914 19.4997 120.496 19.4997C121.055 19.4997 121.521 19.0573 121.521 18.4751V14.2832L122.942 13.1421L127.529 19.034C127.786 19.3367 128.065 19.4997 128.391 19.4997C128.95 19.4997 129.416 19.0573 129.416 18.4751C129.416 18.312 129.392 18.0792 129.206 17.8463L124.618 11.8845Z" fill="white"/>
<path d="M136.101 12.0245C134.587 11.5121 133.283 11.0464 133.283 9.92853C133.283 8.69426 134.657 8.50795 135.472 8.50795C136.939 8.50795 137.661 9.02029 138.243 9.57921C138.43 9.76551 138.663 9.85867 138.919 9.85867C139.431 9.85867 139.85 9.43948 139.85 8.92714C139.85 8.6244 139.687 8.4148 139.641 8.32165C138.779 7.18054 137.312 6.55176 135.472 6.55176C132.864 6.55176 131.257 7.85589 131.257 9.92853C131.257 12.4669 133.493 13.2354 135.449 13.8875C136.939 14.3998 138.22 14.819 138.22 15.9136C138.22 17.404 136.567 17.6369 135.565 17.6369C134.214 17.6369 133.167 17.2177 132.305 16.3793C132.049 16.1232 131.793 16.0766 131.606 16.0766C131.094 16.0766 130.675 16.4958 130.675 17.0081C130.675 17.2177 130.745 17.3807 130.908 17.6136C131.676 18.5917 133.423 19.5931 135.565 19.5931C138.5 19.5931 140.246 18.2191 140.246 15.9368C140.246 13.4683 138.057 12.6998 136.101 12.0245Z" fill="white"/>
<path d="M0.655861 17.8931C1.05176 20.4781 2.26274 22.8069 4.00934 24.5535L8.08475 20.4781C8.08475 16.3561 10.2273 12.3506 14.0465 10.1382L0.655861 17.8931Z" fill="#9B65C3"/>
<path d="M8.08475 20.4784C6.05869 20.4784 4.00934 19.966 2.12301 18.8715C1.61067 18.5688 1.12162 18.2427 0.655861 17.8701C1.05176 20.4551 2.26274 22.7839 4.00934 24.5305L8.08475 20.4784Z" fill="#9B65C3"/>
<path d="M8.08512 20.4783L4.00971 24.5538C5.77961 26.3236 8.08512 27.5346 10.6701 27.9072L18.4017 14.5166C16.2127 18.3358 12.2071 20.4783 8.08512 20.4783Z" fill="#BE63C5"/>
<path d="M9.692 26.4622C8.59746 24.5759 8.08512 22.5266 8.08512 20.5005L4.00971 24.5759C5.77961 26.3458 8.08512 27.5568 10.6701 27.9294C10.3208 27.4636 9.99475 26.9746 9.692 26.4622Z" fill="#BF63C6"/>
<path d="M23.2688 4.82764L14.07 10.1606C10.2507 12.373 5.70957 12.21 2.1465 10.1606C1.12182 11.9072 0.539619 13.9566 0.539619 16.1224C0.539619 16.7278 0.586195 17.31 0.679348 17.8922C1.14511 18.2649 1.63416 18.5909 2.1465 18.8936C4.03283 19.9882 6.08218 20.5005 8.10824 20.5005L23.5249 5.08381C23.4318 4.99065 23.3619 4.8975 23.2688 4.82764Z" fill="#3278B1"/>
<path d="M2.12316 18.8951C4.0095 19.9897 6.05885 20.502 8.08491 20.502C8.08491 16.38 10.2274 12.3745 14.0467 10.1621L0.632729 17.8938C1.12178 18.2431 1.61083 18.5924 2.12316 18.8951Z" fill="#3278B2"/>
<path d="M2.12336 10.1621C1.09868 11.9087 0.516479 13.9581 0.516479 16.1239C0.516479 16.7293 0.563056 17.3115 0.656208 17.8938L14.0701 10.1621C10.2276 12.3512 5.68643 12.2115 2.12336 10.1621Z" fill="#45A4EC"/>
<path d="M23.5255 5.06122C23.4557 4.99136 23.3625 4.8982 23.2694 4.82834C23.1529 4.73519 23.0365 4.64203 22.8968 4.57217C22.4543 4.316 21.942 4.17627 21.4063 4.17627H12.4637C8.03898 4.17627 4.19645 6.57494 2.12381 10.138C5.68688 12.1874 10.2281 12.3504 14.0473 10.138C10.2281 12.3504 8.08556 16.3559 8.08556 20.4779C12.2075 20.4779 16.2131 18.3354 18.4255 14.5162L23.7351 5.31739C23.6653 5.22424 23.5954 5.13108 23.5255 5.06122Z" fill="#19BB7D"/>
<path d="M18.425 14.5155L23.7347 5.31672C23.6648 5.22356 23.595 5.1537 23.5018 5.06055L8.08511 20.4772C8.08511 22.5033 8.59745 24.5527 9.69199 26.439C9.99474 26.9513 10.3208 27.4404 10.6934 27.9061C11.2756 27.9993 11.8578 28.0459 12.4633 28.0459C14.6291 28.0459 16.6784 27.4637 18.425 26.439C16.3757 22.8759 16.2127 18.3347 18.425 14.5155Z" fill="#DA3757"/>
<path d="M8.08511 20.4783C8.08511 22.5044 8.59745 24.5538 9.69199 26.4401C9.99474 26.9524 10.3208 27.4415 10.6934 27.9072L18.425 14.5166C16.2126 18.3358 12.2071 20.4783 8.08511 20.4783Z" fill="#D33C4E"/>
<path d="M18.4259 14.5166L10.6943 27.9305C11.2765 28.0237 11.8587 28.0703 12.4642 28.0703C14.63 28.0703 16.6793 27.4881 18.4259 26.4634C16.3766 22.877 16.2135 18.3358 18.4259 14.5166Z" fill="#EE5A24"/>
<path d="M23.9911 5.68929C23.9212 5.54956 23.8281 5.43313 23.7349 5.31669C23.6651 5.22354 23.5952 5.15367 23.502 5.06052C23.4322 4.99065 23.339 4.8975 23.2459 4.82764L14.0704 10.1606C10.2511 12.373 8.10863 16.3785 8.10863 20.5005C12.2306 20.5005 16.2362 18.358 18.4485 14.5388C16.2362 18.358 16.3992 22.8992 18.4485 26.4623C22.0116 24.3896 24.4103 20.5471 24.4103 16.1224V7.17973C24.387 6.62082 24.2473 6.10848 23.9911 5.68929Z" fill="#8BDF55"/>
<path d="M23.2692 4.82764L14.0704 10.1606C10.2511 12.373 8.10863 16.3785 8.10863 20.5005L23.5253 5.08381C23.4322 4.99065 23.3623 4.8975 23.2692 4.82764Z" fill="#25C16F"/>
<path d="M8.08511 20.4772C12.2071 20.4772 16.2127 18.3347 18.425 14.5155L23.7347 5.31672C23.6648 5.22356 23.595 5.1537 23.5018 5.06055L8.08511 20.4772Z" fill="#8BDF55"/>
<path d="M23.735 5.31738L18.4254 14.5162C16.213 18.3354 16.376 22.8766 18.4254 26.4397L23.9912 5.6667C23.9213 5.55026 23.8282 5.43382 23.735 5.31738Z" fill="#FFBB00"/>
<path d="M18.4256 26.4629C21.9887 24.3903 24.3874 20.5477 24.3874 16.123V7.18038C24.3874 6.64476 24.2476 6.13241 23.9915 5.68994L18.4256 26.4629Z" fill="#FFA800"/>
</svg>
