<svg width="129" height="34" viewBox="0 0 129 34" fill="none" xmlns="http://www.w3.org/2000/svg">
<path fill-rule="evenodd" clip-rule="evenodd" d="M16.6732 0.0322266C7.49306 0.0322266 0.0575867 7.60935 0.0575867 16.9643C0.0575867 24.4568 4.8138 30.7852 11.4185 33.0287C12.2493 33.1768 12.5608 32.6689 12.5608 32.2244C12.5608 31.8223 12.54 30.4889 12.54 29.0708C8.36538 29.8539 7.28537 28.0337 6.95305 27.0813C6.76613 26.5945 5.95612 25.0918 5.24996 24.6896C4.66841 24.3721 3.83763 23.589 5.22919 23.5679C6.53766 23.5467 7.47229 24.7954 7.78383 25.3034C9.27924 27.8644 11.6677 27.1448 12.6231 26.7003C12.7685 25.5997 13.2047 24.8589 13.6824 24.4356C9.9854 24.0123 6.12228 22.5519 6.12228 16.0754C6.12228 14.234 6.76613 12.7101 7.82537 11.5249C7.65922 11.1016 7.07767 9.36605 7.99153 7.03789C7.99153 7.03789 9.38308 6.59342 12.5608 8.77343C13.8901 8.39246 15.3024 8.20197 16.7147 8.20197C18.127 8.20197 19.5394 8.39246 20.8686 8.77343C24.0463 6.57226 25.4379 7.03789 25.4379 7.03789C26.3518 9.36605 25.7702 11.1016 25.604 11.5249C26.6633 12.7101 27.3071 14.2129 27.3071 16.0754C27.3071 22.5731 23.4233 24.0123 19.7263 24.4356C20.3286 24.9648 20.8478 25.9807 20.8478 27.5681C20.8478 29.8327 20.8271 31.6529 20.8271 32.2244C20.8271 32.6689 21.1386 33.198 21.9694 33.0287C25.2679 31.8939 28.1341 29.7336 30.1647 26.8519C32.1952 23.9701 33.2879 20.512 33.2888 16.9643C33.2888 7.60935 25.8533 0.0322266 16.6732 0.0322266Z" fill="white"/>
<path d="M77.5167 25.137H77.4779C77.4954 25.137 77.507 25.1568 77.5244 25.1588H77.5361L77.5167 25.139V25.137ZM77.5244 25.1588C77.3442 25.1607 76.8905 25.2575 76.4117 25.2575C74.8997 25.2575 74.3763 24.5464 74.3763 23.6179V17.4329H77.4585C77.633 17.4329 77.7687 17.2749 77.7687 17.0576V13.6994C77.7687 13.5216 77.6136 13.3636 77.4585 13.3636H74.3763V9.19546C74.3763 9.03743 74.2794 8.93865 74.1049 8.93865H69.9178C69.7434 8.93865 69.6464 9.03743 69.6464 9.19546V13.4821C69.6464 13.4821 67.5335 14.0155 67.3978 14.0352C67.2427 14.0747 67.1458 14.213 67.1458 14.371V17.0576C67.1458 17.2749 67.3009 17.4329 67.4753 17.4329H69.627V23.9123C69.627 28.7323 72.9225 29.2261 75.1711 29.2261C76.1985 29.2261 77.4391 28.8903 77.633 28.7916C77.7493 28.752 77.8074 28.6138 77.8074 28.4755V25.5124C77.8101 25.4283 77.783 25.3461 77.731 25.2808C77.679 25.2155 77.6057 25.1715 77.5244 25.1568V25.1588ZM123.459 20.8109C123.459 17.2354 122.044 16.7613 120.551 16.9193C119.388 16.9983 118.457 17.591 118.457 17.591V24.5444C118.457 24.5444 119.407 25.2161 120.822 25.2556C122.819 25.3148 123.459 24.5839 123.459 20.8109ZM128.169 20.4948C128.169 27.2705 126.018 29.2064 122.257 29.2064C119.078 29.2064 117.372 27.5668 117.372 27.5668C117.372 27.5668 117.294 28.4755 117.197 28.594C117.139 28.7125 117.042 28.752 116.926 28.752H114.057C113.863 28.752 113.689 28.594 113.689 28.4162L113.728 6.46939C113.728 6.2916 113.883 6.13357 114.057 6.13357H118.186C118.361 6.13357 118.516 6.2916 118.516 6.46939V13.9167C118.516 13.9167 120.105 12.8697 122.431 12.8697L122.412 12.8302C124.738 12.8302 128.169 13.7192 128.169 20.4948ZM111.266 13.3636H107.195C106.982 13.3636 106.865 13.5216 106.865 13.7389V24.4852C106.865 24.4852 105.799 25.2556 104.345 25.2556C102.891 25.2556 102.465 24.5839 102.465 23.1024V13.7192C102.465 13.5414 102.31 13.3833 102.135 13.3833H97.9871C97.8126 13.3833 97.6575 13.5414 97.6575 13.7192V23.8135C97.6575 28.1594 100.042 29.2459 103.318 29.2459C106.012 29.2459 108.203 27.7248 108.203 27.7248C108.203 27.7248 108.3 28.4952 108.358 28.6138C108.397 28.7125 108.532 28.7916 108.668 28.7916H111.266C111.479 28.7916 111.595 28.6335 111.595 28.4557L111.634 13.6994C111.634 13.5216 111.479 13.3636 111.266 13.3636ZM65.3236 13.3438H61.1946C61.0202 13.3438 60.8651 13.5216 60.8651 13.7389V28.2384C60.8651 28.6335 61.1171 28.7718 61.4466 28.7718H65.1685C65.5562 28.7718 65.6531 28.594 65.6531 28.2384V13.6796C65.6531 13.5019 65.4981 13.3438 65.3236 13.3438ZM63.2882 6.66693C61.7956 6.66693 60.6131 7.87193 60.6131 9.393C60.6131 10.9141 61.7956 12.1191 63.2882 12.1191C64.7421 12.1191 65.9245 10.9141 65.9245 9.393C65.9245 7.87193 64.7421 6.66693 63.2882 6.66693ZM95.2538 6.17308H91.1636C90.9891 6.17308 90.8341 6.33111 90.8341 6.5089V14.5883H84.4177V6.5089C84.4177 6.33111 84.2626 6.17308 84.0881 6.17308H79.9592C79.7847 6.17308 79.6296 6.33111 79.6296 6.5089V28.4557C79.6296 28.6335 79.8041 28.7916 79.9592 28.7916H84.0881C84.2626 28.7916 84.4177 28.6335 84.4177 28.4557V19.0725H90.8341L90.7953 28.4557C90.7953 28.6335 90.9504 28.7916 91.1248 28.7916H95.2538C95.4283 28.7916 95.5834 28.6335 95.5834 28.4557V6.5089C95.5834 6.33111 95.4283 6.17308 95.2538 6.17308ZM58.6746 15.8921V27.231C58.6746 27.31 58.6552 27.4483 58.5583 27.4878C58.5583 27.4878 56.1352 29.2459 52.1419 29.2459C47.3151 29.2459 41.5965 27.7051 41.5965 17.5515C41.5965 7.39783 46.5978 5.30389 51.4828 5.32365C55.7087 5.32365 57.4146 6.2916 57.686 6.46939C57.7635 6.56816 57.8023 6.64718 57.8023 6.74595L56.9881 10.2622C56.9881 10.44 56.8137 10.6573 56.6004 10.598C55.9026 10.3807 54.8558 9.94612 52.3939 9.94612C49.5443 9.94612 46.4815 10.7758 46.4815 17.3144C46.4815 23.853 49.3893 24.6234 51.4828 24.6234C53.2662 24.6234 53.9059 24.4061 53.9059 24.4061V19.8627H51.0564C50.8431 19.8627 50.688 19.7047 50.688 19.5269V15.8921C50.688 15.7143 50.8431 15.5563 51.0564 15.5563H58.3063C58.5195 15.5563 58.6746 15.7143 58.6746 15.8921Z" fill="white"/>
</svg>
