<svg width="287" height="26" viewBox="0 0 287 26" fill="none" xmlns="http://www.w3.org/2000/svg">
<path d="M13.5754 9.17653L15.3618 7.70062V1.47591C15.3618 0.660878 14.5619 0 13.5754 0C12.589 0 11.7891 0.660878 11.7891 1.47591V7.70062L13.5754 9.17653Z" fill="white"/>
<path d="M13.5754 16.8235L11.7891 18.2994V24.5241C11.7891 25.3391 12.589 26 13.5754 26C14.5619 26 15.3618 25.3391 15.3618 24.5241V18.2994L13.5754 16.8235Z" fill="white"/>
<path d="M19.2371 11.2156H25.7804C26.6372 11.2156 27.3319 11.9766 27.3319 12.915C27.3319 13.8534 26.6372 14.6144 25.7804 14.6144H19.2371L17.6857 12.915L19.2371 11.2156Z" fill="white"/>
<path d="M9.64618 12.9151L8.09474 11.2158H1.55144C0.694702 11.2158 0 11.9767 0 12.9151C0 13.8535 0.694702 14.6145 1.55144 14.6145H8.09474L9.64618 12.9151Z" fill="white"/>
<path d="M10.6534 13.7648L12.8613 15.8652L6.23749 22.1665C5.93253 22.4566 5.5332 22.6015 5.13352 22.6015C4.93368 22.6015 4.73419 22.5652 4.54615 22.4926C4.35811 22.4203 4.18221 22.3114 4.02956 22.1665C3.41998 21.5866 3.41998 20.646 4.02956 20.0661L10.6534 13.7648Z" fill="white"/>
<path d="M14.4694 10.1348L16.6773 12.2353L23.3011 5.93401C23.9107 5.35412 23.9107 4.41382 23.3011 3.8336C23.1485 3.68871 22.9726 3.57979 22.7845 3.50751C22.5968 3.4349 22.397 3.39859 22.1972 3.39859C21.7975 3.39859 21.3982 3.54349 21.0932 3.8336L14.4694 10.1348Z" fill="white"/>
<path d="M22.9526 19.7703C23.552 20.3405 23.552 21.2646 22.9526 21.8345C22.6533 22.1196 22.2605 22.2619 21.8677 22.2619C21.4753 22.2619 21.0825 22.1196 20.7829 21.8345L3.66615 5.55085C3.06677 4.98064 3.06677 4.05657 3.66615 3.48669C3.74082 3.41534 3.82162 3.35306 3.90686 3.29955C4.07699 3.19283 4.26451 3.12148 4.45782 3.0858C4.55465 3.06796 4.65284 3.0592 4.75103 3.0592C5.14346 3.0592 5.53622 3.20159 5.83591 3.48669L22.9526 19.7703Z" fill="white"/>
<path d="M62.3426 0.674102C64.9629 0.674102 67.0021 1.40564 68.4601 2.86871C69.9182 4.31174 70.6472 6.40615 70.6472 9.15192V22.0791H65.5123V9.30223C65.5123 7.81911 65.1003 6.70678 64.2761 5.96522C63.4732 5.20362 62.406 4.82282 61.0748 4.82282C59.6167 4.82282 58.4545 5.22366 57.5881 6.02534C56.7218 6.80699 56.2886 7.99949 56.2886 9.60286V22.0791H51.1537V9.30223C51.1537 7.81911 50.7734 6.70678 50.0126 5.96522C49.2519 5.20362 48.2165 4.82282 46.9064 4.82282C45.4694 4.82282 44.3178 5.22366 43.4514 6.02534C42.585 6.80699 42.1518 7.99949 42.1518 9.60286V22.0791H37.017V1.03486H41.9934V3.62029C42.6696 2.67831 43.5676 1.9568 44.6876 1.45574C45.8075 0.934649 47.0965 0.674102 48.5546 0.674102C50.076 0.674102 51.4073 0.94467 52.5484 1.48581C53.6894 2.0069 54.5664 2.7685 55.1792 3.77061C55.9399 2.7685 56.9331 2.0069 58.1587 1.48581C59.4054 0.94467 60.8001 0.674102 62.3426 0.674102Z" fill="white"/>
<path d="M97.0411 1.03486L87.437 22.0791H82.3656L72.7932 1.03486H78.3401L85.0915 16.0664L91.938 1.03486H97.0411Z" fill="white"/>
<path d="M108.498 1.03486C110.463 1.03486 112.164 1.34551 113.601 1.96682C115.059 2.58812 116.179 3.46998 116.961 4.61238C117.743 5.75478 118.134 7.10762 118.134 8.6709C118.134 10.2141 117.743 11.567 116.961 12.7294C116.179 13.8718 115.059 14.7537 113.601 15.375C112.164 15.9763 110.463 16.2769 108.498 16.2769H104.029V22.0791H98.8937V1.03486H108.498ZM108.212 12.3085C109.755 12.3085 110.928 11.9979 111.731 11.3766C112.534 10.7352 112.935 9.83335 112.935 8.6709C112.935 7.48842 112.534 6.58653 111.731 5.96522C110.928 5.32387 109.755 5.0032 108.212 5.0032H104.029V12.3085H108.212Z" fill="white"/>
<path d="M131.823 4.82282C130.048 4.82282 128.706 5.1936 127.798 5.93516C126.889 6.65667 126.435 7.74897 126.435 9.21204V10.5048H135.563V14.413H126.435V22.0791H121.3V9.2421C121.3 6.53642 122.187 4.432 123.962 2.92884C125.758 1.42568 128.262 0.674102 131.474 0.674102C132.742 0.674102 133.936 0.804376 135.056 1.06492C136.176 1.30543 137.148 1.66619 137.972 2.1472L136.387 5.99528C135.12 5.21364 133.598 4.82282 131.823 4.82282Z" fill="white"/>
<path d="M151.365 22.4398C149.061 22.4398 146.98 21.9688 145.12 21.0269C143.282 20.0849 141.834 18.7922 140.778 17.1487C139.742 15.4852 139.225 13.6213 139.225 11.557C139.225 9.49263 139.742 7.63874 140.778 5.99528C141.834 4.33179 143.282 3.02905 145.12 2.08707C146.98 1.14509 149.061 0.674102 151.365 0.674102C153.668 0.674102 155.739 1.14509 157.577 2.08707C159.416 3.02905 160.863 4.33179 161.92 5.99528C162.976 7.63874 163.504 9.49263 163.504 11.557C163.504 13.6213 162.976 15.4852 161.92 17.1487C160.863 18.7922 159.416 20.0849 157.577 21.0269C155.739 21.9688 153.668 22.4398 151.365 22.4398ZM151.365 18.2911C152.675 18.2911 153.858 18.0105 154.915 17.4493C155.971 16.8681 156.795 16.0664 157.387 15.0443C158 14.0221 158.306 12.8597 158.306 11.557C158.306 10.2542 158 9.09179 157.387 8.06964C156.795 7.04749 155.971 6.25583 154.915 5.69465C153.858 5.11343 152.675 4.82282 151.365 4.82282C150.054 4.82282 148.871 5.11343 147.815 5.69465C146.758 6.25583 145.923 7.04749 145.311 8.06964C144.719 9.09179 144.423 10.2542 144.423 11.557C144.423 12.8597 144.719 14.0221 145.311 15.0443C145.923 16.0664 146.758 16.8681 147.815 17.4493C148.871 18.0105 150.054 18.2911 151.365 18.2911Z" fill="white"/>
<path d="M187.206 1.03486V22.0791H182.229V19.5237C180.708 21.4678 178.468 22.4398 175.51 22.4398C172.889 22.4398 170.84 21.6582 169.36 20.0949C167.902 18.5116 167.173 16.2669 167.173 13.3608V1.03486H172.308V13.2104C172.308 14.894 172.72 16.1667 173.544 17.0285C174.39 17.8702 175.531 18.2911 176.968 18.2911C178.51 18.2911 179.746 17.8402 180.676 16.9383C181.606 16.0163 182.071 14.6635 182.071 12.8797V1.03486H187.206Z" fill="white"/>
<path d="M204.227 0.674102C206.868 0.674102 208.928 1.46577 210.407 3.04909C211.887 4.61238 212.626 6.84707 212.626 9.75318V22.0791H207.491V9.90349C207.491 8.21996 207.069 6.9573 206.223 6.11553C205.399 5.25372 204.248 4.82282 202.768 4.82282C201.205 4.82282 199.947 5.28379 198.997 6.20573C198.067 7.10762 197.602 8.45044 197.602 10.2342V22.0791H192.467V1.03486H197.443V3.59023C198.204 2.62821 199.155 1.90669 200.296 1.42568C201.437 0.924628 202.747 0.674102 204.227 0.674102Z" fill="white"/>
<path d="M217.694 1.03486H227.774C230.183 1.03486 232.307 1.47579 234.145 2.35764C236.005 3.21945 237.441 4.44202 238.456 6.02534C239.491 7.60867 240.009 9.45255 240.009 11.557C240.009 13.6614 239.491 15.5053 238.456 17.0886C237.441 18.6719 236.005 19.9045 234.145 20.7864C232.307 21.6482 230.183 22.0791 227.774 22.0791H217.694V1.03486ZM227.52 18.0807C229.739 18.0807 231.504 17.4995 232.814 16.337C234.145 15.1545 234.811 13.5612 234.811 11.557C234.811 9.55276 234.145 7.96943 232.814 6.80699C231.504 5.6245 229.739 5.03326 227.52 5.03326H222.829V18.0807H227.52Z" fill="white"/>
<path d="M258.018 22.0791L253.739 16.2168H249.016V22.0791H243.881V1.03486H253.485C255.451 1.03486 257.152 1.34551 258.589 1.96682C260.047 2.58812 261.167 3.46998 261.948 4.61238C262.73 5.75478 263.121 7.10762 263.121 8.6709C263.121 10.2342 262.72 11.587 261.917 12.7294C261.135 13.8518 260.015 14.7136 258.557 15.3149L263.533 22.0791H258.018ZM257.923 8.6709C257.923 7.48842 257.521 6.58653 256.719 5.96522C255.916 5.32387 254.743 5.0032 253.2 5.0032H249.016V12.3386H253.2C254.743 12.3386 255.916 12.0179 256.719 11.3766C257.521 10.7352 257.923 9.83335 257.923 8.6709Z" fill="white"/>
<path d="M287 1.03486V15.4952C287 18.6619 286.07 21.087 284.211 22.7705C282.351 24.4741 279.784 25.3259 276.508 25.3259C274.628 25.3259 272.906 25.0754 271.342 24.5743C269.778 24.0933 268.447 23.4019 267.348 22.5L269.345 18.8924C271.352 20.4356 273.698 21.2072 276.382 21.2072C278.241 21.2072 279.615 20.7663 280.502 19.8845C281.411 18.9826 281.865 17.5997 281.865 15.7357V14.443C280.386 16.1667 278.294 17.0285 275.589 17.0285C272.779 17.0285 270.613 16.2769 269.091 14.7737C267.591 13.2505 266.841 11.0659 266.841 8.21996V1.03486H271.976V7.91932C271.976 9.56278 272.388 10.8054 273.212 11.6472C274.036 12.4889 275.198 12.9098 276.699 12.9098C278.283 12.9098 279.541 12.4689 280.47 11.587C281.4 10.7052 281.865 9.37238 281.865 7.58863V1.03486H287Z" fill="white"/>
<g clip-path="url(#clip0_1_822)">
<path d="M13.5754 9.17653L15.3618 7.70062V1.47591C15.3618 0.660878 14.5619 0 13.5754 0C12.589 0 11.7891 0.660878 11.7891 1.47591V7.70062L13.5754 9.17653Z" fill="url(#paint0_linear_1_822)"/>
<path d="M13.5754 16.8235L11.7891 18.2994V24.5241C11.7891 25.3391 12.589 26 13.5754 26C14.5619 26 15.3618 25.3391 15.3618 24.5241V18.2994L13.5754 16.8235Z" fill="url(#paint1_linear_1_822)"/>
<path d="M19.2371 11.2156H25.7804C26.6372 11.2156 27.3319 11.9766 27.3319 12.915C27.3319 13.8534 26.6372 14.6144 25.7804 14.6144H19.2371L17.6857 12.915L19.2371 11.2156Z" fill="url(#paint2_linear_1_822)"/>
<path d="M9.64618 12.9151L8.09474 11.2158H1.55144C0.694702 11.2158 0 11.9767 0 12.9151C0 13.8535 0.694702 14.6145 1.55144 14.6145H8.09474L9.64618 12.9151Z" fill="url(#paint3_linear_1_822)"/>
<path d="M10.6534 13.7648L12.8613 15.8652L6.23749 22.1665C5.93253 22.4566 5.5332 22.6015 5.13352 22.6015C4.93368 22.6015 4.73419 22.5652 4.54615 22.4926C4.35811 22.4203 4.18221 22.3114 4.02956 22.1665C3.41998 21.5866 3.41998 20.646 4.02956 20.0661L10.6534 13.7648Z" fill="url(#paint4_linear_1_822)"/>
<path d="M14.4694 10.1348L16.6773 12.2353L23.3011 5.93401C23.9107 5.35412 23.9107 4.41382 23.3011 3.8336C23.1485 3.68871 22.9726 3.57979 22.7845 3.50751C22.5968 3.4349 22.397 3.39859 22.1972 3.39859C21.7975 3.39859 21.3982 3.54349 21.0932 3.8336L14.4694 10.1348Z" fill="url(#paint5_linear_1_822)"/>
<path d="M22.9526 19.7703C23.552 20.3405 23.552 21.2646 22.9526 21.8345C22.6533 22.1196 22.2605 22.2619 21.8677 22.2619C21.4753 22.2619 21.0825 22.1196 20.7829 21.8345L3.66615 5.55085C3.06677 4.98064 3.06677 4.05657 3.66615 3.48669C3.74082 3.41534 3.82162 3.35306 3.90686 3.29955C4.07699 3.19283 4.26451 3.12148 4.45782 3.0858C4.55465 3.06796 4.65284 3.0592 4.75103 3.0592C5.14346 3.0592 5.53622 3.20159 5.83591 3.48669L22.9526 19.7703Z" fill="url(#paint6_linear_1_822)"/>
<path d="M62.3426 0.674102C64.9629 0.674102 67.0021 1.40564 68.4601 2.86871C69.9182 4.31174 70.6472 6.40615 70.6472 9.15192V22.0791H65.5123V9.30223C65.5123 7.81911 65.1003 6.70678 64.2761 5.96522C63.4732 5.20362 62.406 4.82282 61.0748 4.82282C59.6167 4.82282 58.4545 5.22366 57.5881 6.02534C56.7218 6.80699 56.2886 7.99949 56.2886 9.60286V22.0791H51.1537V9.30223C51.1537 7.81911 50.7734 6.70678 50.0126 5.96522C49.2519 5.20362 48.2165 4.82282 46.9064 4.82282C45.4694 4.82282 44.3178 5.22366 43.4514 6.02534C42.585 6.80699 42.1518 7.99949 42.1518 9.60286V22.0791H37.017V1.03486H41.9934V3.62029C42.6696 2.67831 43.5676 1.9568 44.6876 1.45574C45.8075 0.934649 47.0965 0.674102 48.5546 0.674102C50.076 0.674102 51.4073 0.94467 52.5484 1.48581C53.6894 2.0069 54.5664 2.7685 55.1792 3.77061C55.9399 2.7685 56.9331 2.0069 58.1587 1.48581C59.4054 0.94467 60.8001 0.674102 62.3426 0.674102Z" fill="url(#paint7_linear_1_822)"/>
<path d="M97.0411 1.03486L87.437 22.0791H82.3656L72.7932 1.03486H78.3401L85.0915 16.0664L91.938 1.03486H97.0411Z" fill="url(#paint8_linear_1_822)"/>
<path d="M108.498 1.03486C110.463 1.03486 112.164 1.34551 113.601 1.96682C115.059 2.58812 116.179 3.46998 116.961 4.61238C117.743 5.75478 118.134 7.10762 118.134 8.6709C118.134 10.2141 117.743 11.567 116.961 12.7294C116.179 13.8718 115.059 14.7537 113.601 15.375C112.164 15.9763 110.463 16.2769 108.498 16.2769H104.029V22.0791H98.8937V1.03486H108.498ZM108.212 12.3085C109.755 12.3085 110.928 11.9979 111.731 11.3766C112.534 10.7352 112.935 9.83335 112.935 8.6709C112.935 7.48842 112.534 6.58653 111.731 5.96522C110.928 5.32387 109.755 5.0032 108.212 5.0032H104.029V12.3085H108.212Z" fill="url(#paint9_linear_1_822)"/>
<path d="M131.823 4.82282C130.048 4.82282 128.706 5.1936 127.798 5.93516C126.889 6.65667 126.435 7.74897 126.435 9.21204V10.5048H135.563V14.413H126.435V22.0791H121.3V9.2421C121.3 6.53642 122.187 4.432 123.962 2.92884C125.758 1.42568 128.262 0.674102 131.474 0.674102C132.742 0.674102 133.936 0.804376 135.056 1.06492C136.176 1.30543 137.148 1.66619 137.972 2.1472L136.387 5.99528C135.12 5.21364 133.598 4.82282 131.823 4.82282Z" fill="url(#paint10_linear_1_822)"/>
<path d="M151.365 22.4398C149.061 22.4398 146.98 21.9688 145.12 21.0269C143.282 20.0849 141.834 18.7922 140.778 17.1487C139.742 15.4852 139.225 13.6213 139.225 11.557C139.225 9.49263 139.742 7.63874 140.778 5.99528C141.834 4.33179 143.282 3.02905 145.12 2.08707C146.98 1.14509 149.061 0.674102 151.365 0.674102C153.668 0.674102 155.739 1.14509 157.577 2.08707C159.416 3.02905 160.863 4.33179 161.92 5.99528C162.976 7.63874 163.504 9.49263 163.504 11.557C163.504 13.6213 162.976 15.4852 161.92 17.1487C160.863 18.7922 159.416 20.0849 157.577 21.0269C155.739 21.9688 153.668 22.4398 151.365 22.4398ZM151.365 18.2911C152.675 18.2911 153.858 18.0105 154.915 17.4493C155.971 16.8681 156.795 16.0664 157.387 15.0443C158 14.0221 158.306 12.8597 158.306 11.557C158.306 10.2542 158 9.09179 157.387 8.06964C156.795 7.04749 155.971 6.25583 154.915 5.69465C153.858 5.11343 152.675 4.82282 151.365 4.82282C150.054 4.82282 148.871 5.11343 147.815 5.69465C146.758 6.25583 145.923 7.04749 145.311 8.06964C144.719 9.09179 144.423 10.2542 144.423 11.557C144.423 12.8597 144.719 14.0221 145.311 15.0443C145.923 16.0664 146.758 16.8681 147.815 17.4493C148.871 18.0105 150.054 18.2911 151.365 18.2911Z" fill="url(#paint11_linear_1_822)"/>
<path d="M187.206 1.03486V22.0791H182.229V19.5237C180.708 21.4678 178.468 22.4398 175.51 22.4398C172.889 22.4398 170.84 21.6582 169.36 20.0949C167.902 18.5116 167.173 16.2669 167.173 13.3608V1.03486H172.308V13.2104C172.308 14.894 172.72 16.1667 173.544 17.0285C174.39 17.8702 175.531 18.2911 176.968 18.2911C178.51 18.2911 179.746 17.8402 180.676 16.9383C181.606 16.0163 182.071 14.6635 182.071 12.8797V1.03486H187.206Z" fill="url(#paint12_linear_1_822)"/>
<path d="M204.227 0.674102C206.868 0.674102 208.928 1.46577 210.407 3.04909C211.887 4.61238 212.626 6.84707 212.626 9.75318V22.0791H207.491V9.90349C207.491 8.21996 207.069 6.9573 206.223 6.11553C205.399 5.25372 204.248 4.82282 202.768 4.82282C201.205 4.82282 199.947 5.28379 198.997 6.20573C198.067 7.10762 197.602 8.45044 197.602 10.2342V22.0791H192.467V1.03486H197.443V3.59023C198.204 2.62821 199.155 1.90669 200.296 1.42568C201.437 0.924628 202.747 0.674102 204.227 0.674102Z" fill="url(#paint13_linear_1_822)"/>
<path d="M217.694 1.03486H227.774C230.183 1.03486 232.307 1.47579 234.145 2.35764C236.005 3.21945 237.441 4.44202 238.456 6.02534C239.491 7.60867 240.009 9.45255 240.009 11.557C240.009 13.6614 239.491 15.5053 238.456 17.0886C237.441 18.6719 236.005 19.9045 234.145 20.7864C232.307 21.6482 230.183 22.0791 227.774 22.0791H217.694V1.03486ZM227.52 18.0807C229.739 18.0807 231.504 17.4995 232.814 16.337C234.145 15.1545 234.811 13.5612 234.811 11.557C234.811 9.55276 234.145 7.96943 232.814 6.80699C231.504 5.6245 229.739 5.03326 227.52 5.03326H222.829V18.0807H227.52Z" fill="url(#paint14_linear_1_822)"/>
<path d="M258.018 22.0791L253.739 16.2168H249.016V22.0791H243.881V1.03486H253.485C255.451 1.03486 257.152 1.34551 258.589 1.96682C260.047 2.58812 261.167 3.46998 261.948 4.61238C262.73 5.75478 263.121 7.10762 263.121 8.6709C263.121 10.2342 262.72 11.587 261.917 12.7294C261.135 13.8518 260.015 14.7136 258.557 15.3149L263.533 22.0791H258.018ZM257.923 8.6709C257.923 7.48842 257.521 6.58653 256.719 5.96522C255.916 5.32387 254.743 5.0032 253.2 5.0032H249.016V12.3386H253.2C254.743 12.3386 255.916 12.0179 256.719 11.3766C257.521 10.7352 257.923 9.83335 257.923 8.6709Z" fill="url(#paint15_linear_1_822)"/>
<path d="M287 1.03486V15.4952C287 18.6619 286.07 21.087 284.211 22.7705C282.351 24.4741 279.784 25.3259 276.508 25.3259C274.628 25.3259 272.906 25.0754 271.342 24.5743C269.778 24.0933 268.447 23.4019 267.348 22.5L269.345 18.8924C271.352 20.4356 273.698 21.2072 276.382 21.2072C278.241 21.2072 279.615 20.7663 280.502 19.8845C281.411 18.9826 281.865 17.5997 281.865 15.7357V14.443C280.386 16.1667 278.294 17.0285 275.589 17.0285C272.779 17.0285 270.613 16.2769 269.091 14.7737C267.591 13.2505 266.841 11.0659 266.841 8.21996V1.03486H271.976V7.91932C271.976 9.56278 272.388 10.8054 273.212 11.6472C274.036 12.4889 275.198 12.9098 276.699 12.9098C278.283 12.9098 279.541 12.4689 280.47 11.587C281.4 10.7052 281.865 9.37238 281.865 7.58863V1.03486H287Z" fill="url(#paint16_linear_1_822)"/>
</g>
<defs>
<linearGradient id="paint0_linear_1_822" x1="0" y1="0" x2="4.57612" y2="51.6061" gradientUnits="userSpaceOnUse">
<stop stop-color="#F7138F"/>
<stop offset="1" stop-color="#FBA45A"/>
</linearGradient>
<linearGradient id="paint1_linear_1_822" x1="0" y1="0" x2="4.57612" y2="51.6061" gradientUnits="userSpaceOnUse">
<stop stop-color="#F7138F"/>
<stop offset="1" stop-color="#FBA45A"/>
</linearGradient>
<linearGradient id="paint2_linear_1_822" x1="0" y1="0" x2="4.57612" y2="51.6061" gradientUnits="userSpaceOnUse">
<stop stop-color="#F7138F"/>
<stop offset="1" stop-color="#FBA45A"/>
</linearGradient>
<linearGradient id="paint3_linear_1_822" x1="0" y1="0" x2="4.57612" y2="51.6061" gradientUnits="userSpaceOnUse">
<stop stop-color="#F7138F"/>
<stop offset="1" stop-color="#FBA45A"/>
</linearGradient>
<linearGradient id="paint4_linear_1_822" x1="0" y1="0" x2="4.57612" y2="51.6061" gradientUnits="userSpaceOnUse">
<stop stop-color="#F7138F"/>
<stop offset="1" stop-color="#FBA45A"/>
</linearGradient>
<linearGradient id="paint5_linear_1_822" x1="0" y1="0" x2="4.57612" y2="51.6061" gradientUnits="userSpaceOnUse">
<stop stop-color="#F7138F"/>
<stop offset="1" stop-color="#FBA45A"/>
</linearGradient>
<linearGradient id="paint6_linear_1_822" x1="0" y1="0" x2="4.57612" y2="51.6061" gradientUnits="userSpaceOnUse">
<stop stop-color="#F7138F"/>
<stop offset="1" stop-color="#FBA45A"/>
</linearGradient>
<linearGradient id="paint7_linear_1_822" x1="0" y1="0" x2="4.57612" y2="51.6061" gradientUnits="userSpaceOnUse">
<stop stop-color="#F7138F"/>
<stop offset="1" stop-color="#FBA45A"/>
</linearGradient>
<linearGradient id="paint8_linear_1_822" x1="0" y1="0" x2="4.57612" y2="51.6061" gradientUnits="userSpaceOnUse">
<stop stop-color="#F7138F"/>
<stop offset="1" stop-color="#FBA45A"/>
</linearGradient>
<linearGradient id="paint9_linear_1_822" x1="0" y1="0" x2="4.57612" y2="51.6061" gradientUnits="userSpaceOnUse">
<stop stop-color="#F7138F"/>
<stop offset="1" stop-color="#FBA45A"/>
</linearGradient>
<linearGradient id="paint10_linear_1_822" x1="0" y1="0" x2="4.57612" y2="51.6061" gradientUnits="userSpaceOnUse">
<stop stop-color="#F7138F"/>
<stop offset="1" stop-color="#FBA45A"/>
</linearGradient>
<linearGradient id="paint11_linear_1_822" x1="0" y1="0" x2="4.57612" y2="51.6061" gradientUnits="userSpaceOnUse">
<stop stop-color="#F7138F"/>
<stop offset="1" stop-color="#FBA45A"/>
</linearGradient>
<linearGradient id="paint12_linear_1_822" x1="0" y1="0" x2="4.57612" y2="51.6061" gradientUnits="userSpaceOnUse">
<stop stop-color="#F7138F"/>
<stop offset="1" stop-color="#FBA45A"/>
</linearGradient>
<linearGradient id="paint13_linear_1_822" x1="0" y1="0" x2="4.57612" y2="51.6061" gradientUnits="userSpaceOnUse">
<stop stop-color="#F7138F"/>
<stop offset="1" stop-color="#FBA45A"/>
</linearGradient>
<linearGradient id="paint14_linear_1_822" x1="0" y1="0" x2="4.57612" y2="51.6061" gradientUnits="userSpaceOnUse">
<stop stop-color="#F7138F"/>
<stop offset="1" stop-color="#FBA45A"/>
</linearGradient>
<linearGradient id="paint15_linear_1_822" x1="0" y1="0" x2="4.57612" y2="51.6061" gradientUnits="userSpaceOnUse">
<stop stop-color="#F7138F"/>
<stop offset="1" stop-color="#FBA45A"/>
</linearGradient>
<linearGradient id="paint16_linear_1_822" x1="0" y1="0" x2="4.57612" y2="51.6061" gradientUnits="userSpaceOnUse">
<stop stop-color="#F7138F"/>
<stop offset="1" stop-color="#FBA45A"/>
</linearGradient>
<clipPath id="clip0_1_822">
<rect width="31" height="26" fill="white"/>
</clipPath>
</defs>
</svg>
