<svg width="144" height="49" viewBox="0 0 144 49" fill="none" xmlns="http://www.w3.org/2000/svg">
<g id="mixpanel 1" clip-path="url(#clip0_1_1076)">
<g id="Group">
<g id="Group_2">
<path id="Vector" d="M7.37263 48.0761C10.7972 48.0761 13.5733 45.2548 13.5733 41.7746C13.5733 38.2944 10.7972 35.4731 7.37263 35.4731C3.94812 35.4731 1.172 38.2944 1.172 41.7746C1.172 45.2548 3.94812 48.0761 7.37263 48.0761Z" fill="white"/>
<path id="Vector_2" d="M29.7569 46.3006C32.1791 46.3006 34.1427 44.3051 34.1427 41.8435C34.1427 39.382 32.1791 37.3865 29.7569 37.3865C27.3348 37.3865 25.3712 39.382 25.3712 41.8435C25.3712 44.3051 27.3348 46.3006 29.7569 46.3006Z" fill="white"/>
<path id="Vector_3" d="M48.2061 43.8668C49.3058 43.8668 50.1972 42.9609 50.1972 41.8433C50.1972 40.7258 49.3058 39.8198 48.2061 39.8198C47.1064 39.8198 46.215 40.7258 46.215 41.8433C46.215 42.9609 47.1064 43.8668 48.2061 43.8668Z" fill="white"/>
</g>
<path id="Vector_4" d="M28.5753 28.5719C27.485 28.5719 26.6775 27.7105 26.6775 26.6433V18.4365C26.6775 15.6054 25.3453 13.4306 22.3573 13.4306C19.3694 13.4306 17.5525 15.7695 17.5525 18.4779V26.6433C17.5525 27.7105 16.8256 28.5719 15.6548 28.5719C14.5241 28.5719 13.7571 27.7105 13.7571 26.6433V18.4365C13.7571 15.6054 12.3035 13.4306 9.3153 13.4306C6.24677 13.4306 4.63178 15.7695 4.63178 18.4779V26.6433C4.63178 27.7105 3.86472 28.5719 2.73406 28.5719C1.64383 28.5719 0.83606 27.7105 0.83606 26.6433V12.0764C0.83606 10.9276 1.56297 10.107 2.73378 10.107C4.02588 10.107 4.6315 11.0095 4.6315 12.0764V13.3895C5.72173 11.2147 7.94234 9.94265 10.3247 9.94265C13.2318 9.94265 15.4122 11.4198 16.5024 13.5946C18.077 11.1328 20.3785 9.94265 23.2451 9.94265C28.1308 9.94265 30.4727 13.3487 30.4727 18.1495V26.6427C30.4727 27.7102 29.7059 28.5719 28.5753 28.5719ZM35.8028 2.80299C37.0141 2.80299 38.0234 3.82877 38.0234 5.05971C38.0234 6.29064 37.0141 7.31642 35.8028 7.31642C34.5916 7.31642 33.5819 6.29064 33.5819 5.05971C33.5819 3.82877 34.5913 2.80299 35.8028 2.80299ZM35.8028 28.5722C34.6722 28.5722 33.9051 27.7107 33.9051 26.6433V12.0353C33.9051 10.9684 34.7126 10.1067 35.8028 10.1067C36.8931 10.1067 37.7006 10.9684 37.7006 12.0353V26.6433C37.7 27.7105 36.9332 28.5722 35.8028 28.5722ZM48.3996 16.7542L53.2044 10.6814C53.5273 10.3119 53.9313 10.1067 54.4563 10.1067C55.5058 10.1067 56.1923 10.8044 56.1923 11.7893C56.1923 12.1586 56.071 12.5278 55.7481 12.8973L50.4587 19.2985L55.829 25.7402C56.1115 26.0686 56.2729 26.3968 56.2729 26.8893C56.2729 27.8337 55.4654 28.5716 54.5771 28.5716C54.0119 28.5716 53.5677 28.3664 53.2448 27.9556L48.3996 21.8423L43.5543 27.9556C43.2312 28.3656 42.7873 28.5716 42.2218 28.5716C41.3334 28.5716 40.5259 27.8326 40.5259 26.8893C40.5259 26.3968 40.6877 26.0686 40.9701 25.7402L46.3404 19.2982L41.051 12.8973C40.7278 12.5275 40.6068 12.1586 40.6068 11.7893C40.6068 10.8046 41.2933 10.107 42.3431 10.107C42.8678 10.107 43.2716 10.3124 43.5948 10.6817L48.3996 16.7542ZM69.1128 28.7362C66.4076 28.7362 64.187 27.3007 62.8949 25.2078V34.3171C62.8949 35.3843 62.1278 36.2451 60.9971 36.2451C59.8665 36.2451 59.0994 35.384 59.0994 34.3171V12.0353C59.0994 10.9684 59.7455 10.1067 60.9163 10.1067C62.0874 10.1067 62.7738 11.0095 62.7738 12.0764V13.4722C63.9851 11.3385 66.4076 9.94321 69.1128 9.94321C73.7561 9.94321 77.5516 13.882 77.5516 19.3399C77.5516 25.0021 73.7561 28.7362 69.1128 28.7362ZM68.346 13.1435C65.0753 13.1435 62.8951 16.0565 62.8951 19.3396C62.8951 22.6229 65.0756 25.5356 68.3463 25.5356C71.6167 25.5356 73.7561 23.033 73.7561 19.3396C73.7561 15.6468 71.6161 13.1435 68.346 13.1435ZM97.5786 26.6433C97.5786 27.7105 96.852 28.5719 95.6809 28.5719C94.5502 28.5719 93.8242 27.7105 93.8242 26.6433V25.7405C92.6935 27.4639 90.5535 28.7362 87.9297 28.7362C82.2758 28.7362 79.006 24.5512 79.006 19.3393C79.006 14.2104 82.6405 9.94293 88.3331 9.94293C94.1476 9.94293 97.5797 13.7998 97.5797 19.3393V26.6433H97.5786ZM88.2919 13.2254C85.0616 13.2254 82.8003 15.9752 82.8003 19.3393C82.8003 22.8683 84.698 25.4535 88.2919 25.4535C91.6429 25.4535 93.7829 22.5399 93.7829 19.3393C93.7829 15.5643 91.5221 13.2254 88.2919 13.2254ZM109.006 9.94321C113.891 9.94321 117.484 13.7185 117.484 18.5192V26.6436C117.484 26.897 117.436 27.1479 117.34 27.3821C117.245 27.6162 117.105 27.829 116.929 28.0081C116.753 28.1873 116.543 28.3293 116.313 28.4261C116.083 28.5229 115.836 28.5725 115.586 28.5722C115.337 28.5725 115.09 28.5228 114.86 28.426C114.629 28.3292 114.42 28.1872 114.244 28.008C114.067 27.8289 113.928 27.6162 113.832 27.382C113.737 27.1479 113.688 26.8969 113.689 26.6436V18.0676C113.689 15.4824 111.67 13.472 109.006 13.472C106.341 13.472 104.362 15.4819 104.362 18.0676V26.6436C104.362 26.897 104.313 27.1479 104.218 27.3821C104.123 27.6162 103.983 27.829 103.807 28.0081C103.63 28.1873 103.421 28.3293 103.191 28.4261C102.96 28.5229 102.713 28.5725 102.464 28.5722C102.215 28.5725 101.968 28.5228 101.737 28.426C101.507 28.3292 101.298 28.1872 101.121 28.008C100.945 27.8289 100.805 27.6162 100.71 27.382C100.615 27.1479 100.566 26.8969 100.566 26.6436V18.519C100.566 13.7182 104.119 9.94321 109.006 9.94321ZM137.228 19.3804C137.228 20.0369 136.865 20.6935 135.775 20.6935H123.703C123.904 23.5249 125.802 25.658 129.153 25.658C131.253 25.658 132.504 24.9193 133.837 23.6476C134.16 23.3194 134.604 23.0315 135.088 23.0315C135.936 23.0315 136.663 23.6476 136.663 24.632C136.663 25.0417 136.461 25.4112 136.179 25.7394C134.644 27.545 131.898 28.7354 128.992 28.7354C122.975 28.7354 119.785 24.4673 119.785 19.3382C119.785 13.9627 123.621 9.9418 128.829 9.9418C133.918 9.94321 137.228 14.1279 137.228 19.3804ZM128.83 13.0208C126.044 13.0208 124.146 15.0307 123.783 17.5756H133.715C133.393 15.1129 131.575 13.0208 128.83 13.0208H128.83ZM141.67 28.5719C140.539 28.5719 139.772 27.7105 139.772 26.6433V2.51623C139.772 1.44879 140.539 0.587646 141.67 0.587646C142.8 0.587646 143.567 1.44879 143.567 2.51623V26.6433C143.567 27.7105 142.8 28.5719 141.67 28.5719Z" fill="white"/>
</g>
</g>
<defs>
<clipPath id="clip0_1_1076">
<rect width="142.816" height="47.6053" fill="white" transform="translate(0.808594 0.587402)"/>
</clipPath>
</defs>
</svg>
