<svg width="72" height="72" viewBox="0 0 72 72" fill="none" xmlns="http://www.w3.org/2000/svg">
<g id="next-js 1" clip-path="url(#clip0_1_1085)">
<path id="Vector" d="M33.2218 0.935876C33.0692 0.949593 32.5838 0.997602 32.1469 1.03189C22.0709 1.93035 12.6329 7.30736 6.65519 15.5718C3.32657 20.1669 1.19763 25.3793 0.393212 30.9004C0.108892 32.8276 0.0742188 33.3969 0.0742188 36.0099C0.0742188 38.623 0.108892 39.1922 0.393212 41.1195C2.32104 54.2945 11.8007 65.364 24.6575 69.4654C26.9598 70.1992 29.387 70.6999 32.1469 71.0017C33.2218 71.1183 37.868 71.1183 38.9429 71.0017C43.707 70.4804 47.7429 69.3145 51.7234 67.305C52.3337 66.9963 52.4516 66.914 52.3684 66.8454C52.3129 66.8043 49.7124 63.3545 46.5918 59.1846L40.9193 51.606L33.8113 41.2018C29.9001 35.4818 26.6824 30.8044 26.6547 30.8044C26.627 30.7975 26.5992 35.4201 26.5854 41.0646C26.5646 50.9476 26.5576 51.3454 26.4328 51.5786C26.2525 51.9146 26.1138 52.0518 25.8225 52.2027C25.6006 52.3124 25.4065 52.333 24.3593 52.333H23.1596L22.8406 52.1341C22.6326 52.0038 22.48 51.8323 22.376 51.6334L22.2304 51.3248L22.2443 37.5736L22.2651 23.8156L22.48 23.5481C22.591 23.4041 22.8268 23.2189 22.9932 23.1298C23.2775 22.9926 23.3885 22.9789 24.5882 22.9789C26.0028 22.9789 26.2386 23.0338 26.6062 23.4315C26.7102 23.5413 30.5589 29.2749 35.1635 36.1814C39.7681 43.0878 46.0648 52.5182 49.1576 57.1476L54.7747 65.5629L55.059 65.3777C57.5763 63.7592 60.2392 61.4547 62.3473 59.0543C66.834 53.9584 69.7258 47.7447 70.6966 41.1195C70.9809 39.1922 71.0156 38.623 71.0156 36.0099C71.0156 33.3969 70.9809 32.8276 70.6966 30.9004C68.7688 17.7253 59.2891 6.65581 46.4323 2.55447C44.1647 1.82747 41.7514 1.32681 39.0469 1.02504C38.3812 0.956451 33.7974 0.881008 33.2218 0.935876ZM47.743 22.1559C48.0758 22.3205 48.3463 22.636 48.4433 22.9652C48.4988 23.1435 48.5127 26.9568 48.4988 35.5504L48.478 47.8819L46.2797 44.5487L44.0745 41.2155V32.2515C44.0745 26.4561 44.1023 23.1984 44.1439 23.0406C44.2548 22.6565 44.4975 22.3548 44.8304 22.1765C45.1147 22.0324 45.2187 22.0187 46.3075 22.0187C47.3338 22.0187 47.5141 22.0324 47.743 22.1559Z" fill="white"/>
<path id="Vector_2" d="M54.427 65.7136C54.1843 65.8645 54.108 65.9674 54.323 65.8508C54.4756 65.7616 54.7252 65.5764 54.6836 65.5696C54.6628 65.5696 54.5449 65.6382 54.427 65.7136ZM53.9485 66.0222C53.8237 66.1183 53.8237 66.1251 53.9763 66.0497C54.0595 66.0085 54.1288 65.9605 54.1288 65.9468C54.1288 65.8919 54.0942 65.9056 53.9485 66.0222ZM53.6018 66.228C53.477 66.324 53.477 66.3309 53.6295 66.2554C53.7127 66.2143 53.7821 66.1663 53.7821 66.1525C53.7821 66.0977 53.7474 66.1114 53.6018 66.228ZM53.2551 66.4337C53.1302 66.5298 53.1302 66.5366 53.2828 66.4612C53.366 66.42 53.4354 66.372 53.4354 66.3583C53.4354 66.3034 53.4007 66.3171 53.2551 66.4337ZM52.728 66.7081C52.4645 66.8452 52.4784 66.9001 52.7419 66.7698C52.8598 66.7081 52.9499 66.6464 52.9499 66.6326C52.9499 66.5846 52.943 66.5915 52.728 66.7081Z" fill="white"/>
</g>
<defs>
<clipPath id="clip0_1_1085">
<rect width="71.0177" height="70.2373" fill="white" transform="translate(0.0351562 0.880859)"/>
</clipPath>
</defs>
</svg>
