<svg width="73" height="72" viewBox="0 0 73 72" fill="none" xmlns="http://www.w3.org/2000/svg">
<g id="openai-2 1" clip-path="url(#clip0_1_1083)">
<path id="Vector" d="M70.8011 34.2419C71.5872 35.9773 72.0861 37.8325 72.2902 39.7251C72.4868 41.6177 72.3885 43.5327 71.9803 45.3953C71.5797 47.258 70.8842 49.0458 69.9166 50.6915C69.2817 51.7912 68.5333 52.8235 67.6716 53.7735C66.8174 54.7161 65.865 55.5688 64.8293 56.3169C63.7862 57.0649 62.675 57.6933 61.4958 58.2095C60.3241 58.7181 59.0995 59.1071 57.8447 59.3615C57.2551 61.1718 56.3782 62.8848 55.2444 64.4258C54.118 65.9668 52.7498 67.3207 51.1927 68.4353C49.6355 69.5574 47.912 70.4252 46.0827 71.0086C44.2534 71.5996 42.3409 71.8913 40.4133 71.8913C39.1358 71.8988 37.8508 71.7642 36.596 71.5098C35.3487 71.248 34.1241 70.8516 32.9525 70.3354C31.7808 69.8192 30.6696 69.1759 29.634 68.4279C28.606 67.6798 27.6535 66.8195 26.8069 65.8695C24.9171 66.2735 22.9819 66.3707 21.0695 66.1762C19.157 65.9743 17.2824 65.4805 15.5211 64.7026C13.7674 63.9321 12.1421 62.8848 10.7135 61.6056C9.28479 60.3265 8.06776 58.8303 7.10775 57.1846C6.46523 56.085 5.93609 54.9255 5.53545 53.7211C5.13482 52.5168 4.87025 51.275 4.73418 50.0108C4.59812 48.7541 4.60568 47.4824 4.74174 46.2182C4.87781 44.9615 5.15749 43.7197 5.55813 42.5153C4.27308 41.1015 3.2148 39.4932 2.42864 37.7577C1.65005 36.0147 1.14359 34.1671 0.947053 32.2745C0.742957 30.3819 0.848784 28.4669 1.24942 26.6042C1.65005 24.7416 2.34549 22.9537 3.31306 21.308C3.94803 20.2084 4.69639 19.1686 5.55057 18.2261C6.40475 17.2835 7.36476 16.4307 8.40037 15.6827C9.43597 14.9346 10.5547 14.2988 11.7264 13.7901C12.9056 13.2739 14.1302 12.8924 15.385 12.6381C15.9746 10.8203 16.8515 9.11478 17.9778 7.57379C19.1117 6.0328 20.4799 4.67882 22.0371 3.55674C23.5942 2.44215 25.3177 1.5744 27.147 0.983443C28.9763 0.399962 30.8888 0.100741 32.8164 0.108222C34.0939 0.100741 35.3789 0.22791 36.6338 0.489729C37.8886 0.751547 39.1132 1.14053 40.2848 1.65669C41.4565 2.18033 42.5677 2.81617 43.6033 3.56422C44.6389 4.31976 45.5913 5.17254 46.438 6.12256C48.3202 5.7261 50.2553 5.62885 52.1678 5.82334C54.0802 6.01784 55.9474 6.51903 57.7086 7.28953C59.4624 8.0675 61.0876 9.10729 62.5163 10.3865C63.9449 11.6582 65.162 13.1468 66.122 14.8C66.7645 15.8921 67.2936 17.0516 67.6943 18.2635C68.0949 19.4678 68.367 20.7096 68.4955 21.9738C68.6316 23.238 68.6316 24.5097 68.488 25.7739C68.3519 27.0381 68.0722 28.2799 67.6716 29.4842C68.9642 30.8981 70.0149 32.4989 70.8011 34.2419ZM45.614 66.1762C47.2619 65.503 48.7586 64.5081 50.021 63.2588C51.2834 62.0096 52.2887 60.5284 52.9691 58.8902C53.6494 57.2594 54.0047 55.509 54.0047 53.7436V37.062C53.9996 37.0471 53.9946 37.0296 53.9895 37.0097C53.9845 36.9947 53.9769 36.9797 53.9669 36.9648C53.9568 36.9498 53.9442 36.9373 53.9291 36.9274C53.9139 36.9124 53.8988 36.9024 53.8837 36.8974L47.7835 33.4115V53.5641C47.7835 53.766 47.7533 53.9755 47.7003 54.17C47.6474 54.372 47.5718 54.559 47.466 54.7385C47.3602 54.918 47.2392 55.0826 47.088 55.2247C46.9411 55.3697 46.776 55.4954 46.5967 55.5988L32.1512 63.8498C32.0302 63.9246 31.8261 64.0293 31.7203 64.0892C32.3175 64.5904 32.9676 65.0317 33.6479 65.4207C34.3358 65.8097 35.0463 66.1388 35.7871 66.4081C36.5279 66.6699 37.2914 66.8719 38.0624 67.0066C38.841 67.1412 39.6272 67.2085 40.4133 67.2085C42.1973 67.2085 43.9661 66.857 45.614 66.1762ZM11.2124 54.8507C12.1119 56.3842 13.2987 57.7158 14.7122 58.7929C16.1334 59.8701 17.7435 60.6556 19.4669 61.1119C21.1904 61.5682 22.9895 61.6879 24.7583 61.456C26.5272 61.2241 28.228 60.6556 29.7776 59.7729L44.3819 51.4321L44.4197 51.3947C44.4297 51.3847 44.4373 51.3698 44.4423 51.3498C44.4524 51.3349 44.46 51.3199 44.465 51.3049V44.2732L26.8371 54.3645C26.6557 54.4692 26.4667 54.544 26.2702 54.6039C26.0661 54.6562 25.862 54.6787 25.6503 54.6787C25.4462 54.6787 25.2421 54.6562 25.038 54.6039C24.8415 54.544 24.645 54.4692 24.4635 54.3645L10.018 46.106C9.88952 46.0312 9.70054 45.919 9.59471 45.8516C9.45865 46.6221 9.39061 47.4001 9.39061 48.1781C9.39061 48.9561 9.4662 49.734 9.60227 50.5045C9.73833 51.2675 9.94999 52.0231 10.2146 52.7562C10.4867 53.4893 10.8193 54.1924 11.2124 54.8657V54.8507ZM7.41768 23.6569C6.5257 25.1904 5.9512 26.881 5.71687 28.6315C5.48254 30.3819 5.60348 32.1548 6.06459 33.8678C6.5257 35.5734 7.31941 37.1667 8.40793 38.5731C9.49644 39.9719 10.8495 41.1464 12.3916 42.0291L26.9883 50.3774C27.0034 50.3823 27.021 50.3873 27.0412 50.3923H27.0941C27.1143 50.3923 27.1319 50.3873 27.147 50.3774C27.1622 50.3724 27.1773 50.3649 27.1924 50.3549L33.3153 46.854L15.6874 36.7852C15.5135 36.6805 15.3472 36.5533 15.196 36.4112C15.0496 36.2658 14.9225 36.1024 14.8181 35.925C14.7198 35.7454 14.6367 35.5584 14.5837 35.3565C14.5308 35.162 14.5006 34.96 14.5082 34.7505V17.7623C13.7674 18.0316 13.0492 18.3607 12.3689 18.7497C11.6886 19.1462 11.0461 19.595 10.4413 20.0962C9.84416 20.5974 9.28479 21.1509 8.77832 21.7494C8.27186 22.3403 7.82587 22.9837 7.4328 23.6569H7.41768ZM57.5575 35.2069C57.7389 35.3116 57.9052 35.4313 58.0564 35.5809C58.2 35.723 58.3285 35.8876 58.4343 36.0671C58.5326 36.2466 58.6157 36.4411 58.6687 36.6356C58.714 36.8376 58.7442 37.0396 58.7367 37.249V54.2373C61.1632 53.3546 63.2797 51.8061 64.8445 49.7714C66.4168 47.7367 67.3617 45.3056 67.5809 42.7622C67.8001 40.2188 67.2861 37.6605 66.0917 35.3939C64.8974 33.1273 63.0756 31.2422 60.8381 29.9705L46.2414 21.6222C46.2263 21.6172 46.2087 21.6122 46.1885 21.6073H46.1356C46.1205 21.6122 46.1028 21.6172 46.0827 21.6222C46.0676 21.6272 46.0524 21.6347 46.0373 21.6447L39.9447 25.1306L57.5726 35.2069H57.5575ZM63.6426 26.1554H63.635V26.1629L63.6426 26.1554ZM63.635 26.1479C64.0734 23.6345 63.7786 21.0462 62.7808 18.6898C61.7906 16.3335 60.1351 14.3063 58.0186 12.8401C55.902 11.3814 53.4075 10.5436 50.8298 10.4313C48.2446 10.3266 45.6896 10.9475 43.4521 12.2192L28.8554 20.56C28.8403 20.57 28.8277 20.5824 28.8176 20.5974L28.7874 20.6423C28.7823 20.6572 28.7773 20.6747 28.7723 20.6946C28.7672 20.7096 28.7647 20.727 28.7647 20.747V27.7188L46.3926 17.6426C46.574 17.5378 46.7706 17.463 46.9671 17.4032C47.1712 17.3508 47.3753 17.3284 47.5794 17.3284C47.791 17.3284 47.9951 17.3508 48.1992 17.4032C48.3958 17.463 48.5848 17.5378 48.7662 17.6426L63.2117 25.9011C63.3402 25.9759 63.5292 26.0806 63.635 26.1479ZM25.4387 18.428C25.4387 18.2261 25.4689 18.0241 25.5218 17.8221C25.5747 17.6276 25.6503 17.4331 25.7562 17.2536C25.862 17.0815 25.9829 16.917 26.1341 16.7674C26.2777 16.6252 26.444 16.4981 26.6255 16.4008L41.071 8.14979C41.207 8.0675 41.396 7.96277 41.5018 7.91041C39.5213 6.27218 37.1024 5.2249 34.5399 4.90324C31.9773 4.5741 29.377 4.97804 27.0412 6.06272C24.6979 7.1474 22.7174 8.8754 21.3341 11.0298C19.9507 13.1917 19.2175 15.6902 19.2175 18.2485V34.9301C19.2225 34.95 19.2276 34.9675 19.2326 34.9824C19.2377 34.9974 19.2452 35.0124 19.2553 35.0273C19.2654 35.0423 19.278 35.0572 19.2931 35.0722C19.3032 35.0822 19.3183 35.0921 19.3384 35.1021L25.4387 38.588V18.428ZM28.7496 40.4731L36.6035 44.9615L44.4575 40.4731V31.504L36.6111 27.0157L28.7571 31.504L28.7496 40.4731Z" fill="white"/>
</g>
<defs>
<clipPath id="clip0_1_1083">
<rect width="71.7981" height="71.7981" fill="white" transform="translate(0.714844 0.100586)"/>
</clipPath>
</defs>
</svg>
