<svg width="138" height="27" viewBox="0 0 138 27" fill="none" xmlns="http://www.w3.org/2000/svg">
<path d="M135.892 12.1498C136.695 13.0019 137.099 14.1571 137.099 15.6207V23.3203H134.12V16.4936C134.12 15.6311 133.876 14.9516 133.389 14.455C132.902 13.9584 132.244 13.7075 131.41 13.7075C130.425 13.7232 129.643 14.063 129.068 14.7216C128.493 15.3802 128.202 16.227 128.202 17.2568V23.3203H125.244V6.21179H128.202V13.3364C129.037 11.7212 130.503 10.9005 132.596 10.8692C133.985 10.8692 135.089 11.2926 135.892 12.1498ZM118.663 13.5193C117.678 13.5193 116.875 13.8591 116.264 14.5334C115.652 15.2129 115.341 16.0859 115.341 17.1627C115.341 18.2708 115.652 19.1594 116.264 19.839C116.88 20.5133 117.678 20.853 118.668 20.853C120.124 20.853 121.217 20.3669 121.948 19.3999L123.793 20.9471C123.249 21.7469 122.502 22.3846 121.632 22.7923C120.735 23.2209 119.699 23.4353 118.512 23.4353C117.315 23.4353 116.248 23.1739 115.315 22.6512C114.398 22.1441 113.642 21.3758 113.144 20.4506C112.626 19.5044 112.367 18.4172 112.367 17.1888C112.367 15.9447 112.631 14.8418 113.154 13.8905C113.657 12.9548 114.419 12.1916 115.341 11.6794C116.274 11.1567 117.347 10.8953 118.564 10.8953C119.673 10.8953 120.663 11.0887 121.533 11.4808C122.404 11.8728 123.114 12.4321 123.663 13.1534L121.865 14.8836C121.031 13.9741 119.969 13.5193 118.663 13.5193ZM110.476 10.9842V23.3203H107.517V21.3601C107.097 22.0187 106.511 22.5571 105.822 22.9178C105.133 23.2784 104.34 23.4614 103.444 23.4614C102.288 23.4614 101.278 23.1948 100.402 22.6669C99.5316 22.1389 98.8476 21.3914 98.3657 20.4296C97.8838 19.4678 97.6403 18.3649 97.6403 17.1209C97.6403 15.8925 97.8838 14.8052 98.3709 13.8591C98.8528 12.913 99.5368 12.1812 100.407 11.6585C101.278 11.1358 102.283 10.8744 103.423 10.8744C104.32 10.8744 105.118 11.0574 105.812 11.418C106.506 11.7787 107.097 12.3119 107.517 12.9757V10.9946L110.476 10.9842ZM106.444 20.0324C107.066 19.426 107.423 18.621 107.517 17.6227V16.7497C107.423 15.7461 107.071 14.9464 106.449 14.34C105.827 13.7337 105.04 13.4305 104.081 13.4305C103.066 13.4305 102.236 13.7807 101.599 14.4811C100.962 15.1816 100.635 16.0859 100.62 17.1888C100.635 18.297 100.962 19.196 101.599 19.8965C102.236 20.5969 103.066 20.9471 104.081 20.9471C105.035 20.9471 105.822 20.644 106.444 20.0324ZM94.6608 12.5732C95.6401 13.6971 96.1272 15.2704 96.1272 17.2986C96.1272 17.6958 96.1168 17.999 96.1065 18.1977H87.1161C87.313 19.0758 87.7172 19.7606 88.3338 20.2624C88.9453 20.7642 89.7018 21.0099 90.5982 21.0099C91.2097 21.0099 91.8211 20.8896 92.386 20.6492C92.9508 20.4192 93.4586 20.069 93.8783 19.6247L95.4691 21.3078C94.8525 21.9926 94.0959 22.5257 93.2461 22.876C92.3756 23.2471 91.4066 23.43 90.3443 23.43C89.1007 23.43 88.0022 23.1687 87.0539 22.646C86.1264 22.1442 85.3595 21.3758 84.8568 20.4453C84.3387 19.4992 84.0848 18.412 84.0848 17.1836C84.0848 15.9552 84.3438 14.8627 84.8724 13.9114C85.3802 12.9757 86.1419 12.2021 87.0695 11.6846C88.0125 11.1514 89.08 10.8901 90.277 10.8901C92.2201 10.8901 93.6814 11.4546 94.6608 12.5732ZM93.4223 16.1957C93.3912 15.2861 93.0959 14.5648 92.5362 14.0264C91.9766 13.488 91.2304 13.2162 90.3029 13.2162C89.4375 13.2162 88.7121 13.4828 88.1265 14.0107C87.541 14.5386 87.1835 15.2652 87.0435 16.1904H93.4223V16.1957ZM80.8669 11.5278C81.5716 11.1044 82.3955 10.8849 83.3386 10.8692V13.7755C82.0794 13.6971 81.0742 13.995 80.3228 14.6641C79.5714 15.3332 79.1932 16.2375 79.1932 17.3718V23.3203H76.2344V10.9842H79.1932V13.3573C79.6077 12.5576 80.1622 11.946 80.8669 11.5278ZM74.0166 22.5571C73.0476 23.1582 72.0268 23.4562 70.9645 23.4562C69.9178 23.4562 69.0576 23.1425 68.3944 22.5205C67.7259 21.8985 67.3943 20.9785 67.3943 19.7658V8.09879L70.3323 7.74334V11.486H73.8145V13.6762H70.3323V19.2379C70.3323 19.8076 70.436 20.2101 70.6484 20.4453C70.8609 20.6858 71.177 20.8008 71.6019 20.8008C72.0579 20.8008 72.633 20.6335 73.3326 20.2937L74.0166 22.5571ZM61.912 10.9842H64.85V17.8997C64.85 21.9351 62.0674 23.4353 59.2434 23.4353C56.4193 23.4353 53.6419 21.9351 53.6419 17.8997V10.9842H56.5799V18.0042C56.5799 19.5515 57.7199 20.806 59.2485 20.806C60.7772 20.806 61.9172 19.5515 61.9172 18.0042L61.912 10.9842ZM47.5533 8.05697C48.8228 8.75218 49.8799 9.78193 50.6157 11.0312C51.3619 12.291 51.7298 13.6918 51.7298 15.2286C51.7298 16.7654 51.3567 18.1663 50.6157 19.4365C49.8799 20.6962 48.8228 21.7364 47.5533 22.4473C46.2527 23.1844 44.8173 23.5555 43.2369 23.5555C41.6564 23.5555 40.2211 23.1844 38.9256 22.4473C37.6561 21.7364 36.599 20.6962 35.8632 19.4365C35.1222 18.1663 34.7491 16.7654 34.7491 15.2286C34.7491 13.6918 35.1222 12.291 35.8632 11.0312C36.599 9.7767 37.6561 8.75218 38.9256 8.05697C40.2211 7.33562 41.6616 6.97495 43.2369 6.97495C44.8173 6.96972 46.2578 7.3304 47.5533 8.05697ZM40.5786 10.4667C39.7547 10.9371 39.0707 11.6219 38.5992 12.4478C38.1121 13.2894 37.8686 14.2146 37.8686 15.2286C37.8686 16.2427 38.1173 17.1731 38.6096 18.0199C39.0863 18.851 39.7703 19.541 40.589 20.0272C41.4181 20.5185 42.3145 20.7642 43.2887 20.7642C44.2266 20.7694 45.1489 20.5133 45.9521 20.0272C46.7657 19.541 47.4341 18.851 47.9005 18.0199C48.3824 17.1679 48.6259 16.2061 48.6156 15.2286C48.6156 14.2146 48.3772 13.2894 47.9005 12.4478C47.4393 11.6271 46.7657 10.9424 45.9521 10.4667C45.1438 9.98579 44.2266 9.73489 43.2887 9.74012C42.3352 9.73489 41.4025 9.98579 40.5786 10.4667ZM12.452 0.0541992C16.644 0.0541992 22.9762 1.35576 25.9194 4.34047C26.6656 5.0984 27.6449 6.57769 27.6449 8.75218C27.6449 12.6098 24.5721 18.5322 21.1833 21.9717C19.4318 23.7489 16.644 26.0697 12.8924 26.0697C9.22374 26.0697 6.42558 23.5503 5.61723 22.7244C2.50817 19.5776 0.285187 14.8 0.285187 10.3517C0.285187 7.53948 1.078 5.08272 3.09371 3.0389C4.95914 1.1519 8.17702 0.0541992 12.452 0.0541992ZM17.6389 15.4482C19.0536 14.0159 19.437 12.2491 19.437 11.2769C19.437 10.5712 19.2556 9.54148 18.3851 8.65809C17.0534 7.30426 15.5714 6.92268 13.9651 6.92268C11.9286 6.92268 10.5606 7.57607 9.64864 8.49605C8.93356 9.22785 8.31693 10.336 8.31693 11.9198C8.31693 13.4984 9.15119 15.0248 10.0528 15.9447C10.8923 16.7915 12.2084 17.4188 13.5298 17.4188C14.8563 17.4188 16.2243 16.8804 17.6389 15.4482Z" fill="#5952FF"/>
</svg>
