<svg width="72" height="72" viewBox="0 0 72 72" fill="none" xmlns="http://www.w3.org/2000/svg">
<g id="logo-react-svgrepo-com 1">
<path id="Vector" d="M56.9606 25.6726C56.2514 25.433 55.537 25.2099 54.8176 25.0032C54.9369 24.5231 55.0469 24.0402 55.1477 23.5546C56.7706 15.7489 55.7095 9.46046 52.0879 7.39038C48.6202 5.40398 42.9332 7.47406 37.1963 12.4236C36.6323 12.912 36.0798 13.415 35.5388 13.9326C35.1782 13.5887 34.8083 13.2522 34.4291 12.9229C28.4162 7.63045 22.3894 5.40124 18.772 7.47818C15.3043 9.46869 14.2737 15.3799 15.7343 22.7781C15.8804 23.5097 16.0445 24.2382 16.2267 24.9634C15.3737 25.2035 14.5497 25.46 13.7619 25.7316C6.72116 28.1666 2.21875 31.9844 2.21875 35.9435C2.21875 40.0342 7.05128 44.136 14.393 46.6231C14.9885 46.8234 15.5896 47.0095 16.1962 47.1814C15.9992 47.9579 15.8249 48.743 15.6733 49.5368C14.2862 56.8075 15.3681 62.5788 18.8288 64.5569C22.4033 66.5996 28.3996 64.5007 34.2447 59.4387C34.707 59.0381 35.1694 58.6151 35.6317 58.1697C36.2161 58.7285 36.8172 59.2708 37.4349 59.7967C43.0941 64.6228 48.6826 66.5721 52.1378 64.5885C55.7095 62.539 56.8704 56.3383 55.3627 48.7947C55.2471 48.2185 55.114 47.6305 54.9632 47.0305C55.3849 46.9071 55.7978 46.7795 56.2019 46.6478C63.8307 44.1415 68.8006 40.0891 68.8006 35.9476C68.7978 31.9693 64.1511 28.1268 56.9606 25.6726ZM39.0675 14.5499C43.9819 10.3096 48.5758 8.63599 50.6703 9.83222C52.8993 11.1066 53.7662 16.2455 52.3653 22.9852C52.2728 23.4242 52.1729 23.8618 52.0657 24.2981C49.1329 23.6383 46.1589 23.1727 43.1635 22.9043C41.4484 20.4609 39.5684 18.135 37.5362 15.9423C38.0337 15.4649 38.5432 15.0008 39.0647 14.5499H39.0675ZM21.8776 39.3264C22.4796 40.4787 23.1089 41.6169 23.7654 42.7408C24.434 43.8877 25.1307 45.0176 25.8557 46.1306C23.7946 45.909 21.7465 45.5825 19.7193 45.1525C20.3074 43.2704 21.0315 41.3155 21.8776 39.3264ZM21.8776 32.6964C21.0454 30.7498 20.3407 28.8347 19.7623 26.9855C21.6626 26.5643 23.6877 26.22 25.7988 25.9594C25.0914 27.0513 24.4108 28.1593 23.7571 29.2833C23.1033 30.4073 22.4754 31.545 21.8734 32.6964H21.8776ZM23.3895 36.0121C24.2661 34.204 25.2103 32.4307 26.2219 30.6921C27.2326 28.9545 28.3085 27.2566 29.4496 25.5986C31.4303 25.4504 33.461 25.3722 35.5124 25.3722C37.5639 25.3722 39.6071 25.4504 41.5864 25.5999C42.7155 27.2544 43.7849 28.9463 44.7947 30.6757C45.8045 32.4051 46.7611 34.1702 47.6645 35.9709C46.7731 37.7854 45.8188 39.566 44.8016 41.3128C43.7927 43.0504 42.7293 44.7533 41.6114 46.4214C39.6348 46.5586 37.5889 46.6341 35.5083 46.6341C33.4277 46.6341 31.4206 46.5696 29.4801 46.4448C28.3307 44.7812 27.246 43.076 26.226 41.3292C25.2061 39.5825 24.2592 37.8101 23.3853 36.0121H23.3895ZM47.2636 42.7216C47.9341 41.5711 48.5777 40.4055 49.1944 39.2249C50.0399 41.1208 50.7862 43.0586 51.4304 45.0304C49.3794 45.4872 47.3057 45.8375 45.2177 46.0799C45.9224 44.9742 46.6043 43.8548 47.2636 42.7216ZM49.1667 32.6977C48.5527 31.5408 47.9142 30.3977 47.2512 29.2682C46.6039 28.1543 45.9293 27.0541 45.2274 25.9676C47.351 26.2337 49.3886 26.5876 51.2986 27.0198C50.6845 28.9465 49.973 30.8416 49.1667 32.6977ZM35.5402 17.9575C36.9252 19.4543 38.233 21.0193 39.4586 22.6464C36.8371 22.5229 34.2137 22.5229 31.5884 22.6464C32.8826 20.9536 34.2072 19.3828 35.5402 17.9575ZM20.2034 9.9159C22.431 8.63736 27.3565 10.4646 32.5483 15.0287C32.8798 15.3209 33.2141 15.6268 33.547 15.9437C31.5043 18.136 29.611 20.46 27.8794 22.9002C24.8907 23.1665 21.9226 23.6248 18.9939 24.272C18.8247 23.5989 18.6721 22.9212 18.5362 22.239C17.2809 15.897 18.1117 11.1162 20.2034 9.9159ZM16.9563 44.4652C16.4015 44.3088 15.8536 44.1392 15.3126 43.9563C12.0669 42.8588 9.38571 41.4266 7.54507 39.8669C5.89724 38.469 5.06223 37.0739 5.06223 35.9435C5.06223 33.5414 8.67692 30.4768 14.7051 28.3985C15.4624 28.1378 16.2262 27.8996 16.9965 27.6837C17.8918 30.5293 18.9761 33.3133 20.2423 36.0175C18.961 38.7592 17.8633 41.5812 16.9563 44.4652ZM32.3707 57.3151C29.7866 59.5539 27.1984 61.1411 24.9167 61.9409C22.8666 62.6583 21.234 62.6789 20.2478 62.1151C18.1478 60.9147 17.2739 56.2794 18.4654 50.0623C18.6069 49.3306 18.7687 48.599 18.9509 47.8673C21.9089 48.4975 24.9068 48.9279 27.9238 49.1555C29.6723 51.6084 31.5813 53.9455 33.6385 56.1518C33.2252 56.5537 32.8021 56.9406 32.3707 57.3151ZM35.6192 54.1297C34.271 52.6879 32.9256 51.0925 31.6134 49.3777C32.8886 49.4271 34.1869 49.4518 35.5083 49.4518C36.8648 49.4518 38.2075 49.423 39.5308 49.364C38.3096 51.0173 37.0041 52.6079 35.6192 54.1297ZM52.891 58.0517C52.4943 60.1698 51.6967 61.5828 50.7105 62.148C48.6119 63.3525 44.1247 61.7872 39.2866 57.6594C38.7318 57.1875 38.177 56.6813 37.6125 56.1504C39.6296 53.9356 41.4939 51.589 43.1926 49.1267C46.2264 48.8725 49.2388 48.4118 52.2085 47.748C52.3445 48.2912 52.4647 48.8235 52.5692 49.3448C53.2363 52.6783 53.3321 55.6936 52.891 58.0517ZM55.3045 43.9714C54.941 44.0907 54.5665 44.206 54.1865 44.3184C53.2553 41.4595 52.1287 38.6664 50.8145 35.9586C52.0794 33.2868 53.1619 30.5343 54.0547 27.7194C54.7358 27.9156 55.3974 28.1213 56.034 28.3395C62.1954 30.4411 65.9543 33.5524 65.9543 35.9435C65.9543 38.4951 61.8944 41.8066 55.3045 43.9714Z" fill="#61DAFB"/>
<path id="Vector_2" d="M35.5075 41.8367C36.6879 41.8405 37.843 41.4978 38.8264 40.8519C39.8098 40.2061 40.5773 39.2861 41.0317 38.2086C41.4861 37.1311 41.607 35.9444 41.379 34.7989C41.1511 33.6534 40.5846 32.6005 39.7512 31.7736C38.9179 30.9467 37.8551 30.383 36.6976 30.1538C35.5401 29.9247 34.3399 30.0403 33.2489 30.4862C32.158 30.9321 31.2253 31.6882 30.5691 32.6587C29.9128 33.6291 29.5625 34.7704 29.5625 35.9379C29.5609 36.7114 29.7134 37.4776 30.0113 38.1927C30.3093 38.9079 30.7468 39.558 31.2989 40.1058C31.851 40.6536 32.5069 41.0885 33.229 41.3855C33.9512 41.6825 34.7254 41.8358 35.5075 41.8367Z" fill="#61DAFB"/>
</g>
</svg>
