<svg width="69" height="69" viewBox="0 0 69 69" fill="none" xmlns="http://www.w3.org/2000/svg">
<g id="retool-logos-idpLYn9I4G 1" clip-path="url(#clip0_1_1091)">
<g id="Group">
<path id="Vector" d="M0.130859 6.58487C0.130859 3.19007 2.91062 0.441895 6.34444 0.441895H31.0353C34.4691 0.441895 37.2488 3.19007 37.2488 6.58487V11.4346C37.2488 13.2128 35.7772 14.5061 34.142 14.5061H3.23765C1.6025 14.6677 0.130859 13.2128 0.130859 11.4346V6.58487Z" fill="white"/>
<path id="Vector_2" d="M0.130859 26.1455C0.130859 24.5289 1.6025 23.074 3.23765 23.074H62.4302C65.864 23.074 68.6438 25.8221 68.6438 29.2169V45.3827C68.6438 47.1609 67.1721 48.4542 65.537 48.4542H6.34444C2.91062 48.6158 0.130859 45.706 0.130859 42.3112V26.1455Z" fill="white"/>
<path id="Vector_3" d="M31.5254 60.0935C31.5254 58.3152 32.997 57.022 34.6322 57.022H65.5366C67.3352 57.022 68.6434 58.4769 68.6434 60.0935V62.0333C68.6434 65.4281 65.8636 68.1763 62.4298 68.1763H37.9025C34.4687 68.1763 31.6889 65.4281 31.6889 62.0333V60.0935H31.5254Z" fill="white"/>
</g>
</g>
<defs>
<clipPath id="clip0_1_1091">
<rect width="68.6764" height="67.896" fill="white" transform="translate(0.130859 0.441895)"/>
</clipPath>
</defs>
</svg>
