<svg width="59" height="72" viewBox="0 0 59 72" fill="none" xmlns="http://www.w3.org/2000/svg">
<g id="svelte-1 1">
<path id="Vector" d="M52.6334 12.4101C46.6605 3.88379 34.8627 1.35651 26.3336 6.77731L11.355 16.3007C10.3474 16.9325 9.40734 17.6671 8.55207 18.4928C7.69572 19.3184 6.92845 20.2308 6.26204 21.2149C5.59564 22.1991 5.03333 23.2496 4.58369 24.3494C4.13515 25.4497 3.80214 26.5935 3.58999 27.7623C3.41293 28.7422 3.31635 29.7359 3.30347 30.7318C3.28952 31.7288 3.35927 32.7248 3.51058 33.7089C3.66189 34.6941 3.89476 35.6654 4.20596 36.6121C4.51716 37.5587 4.9067 38.4775 5.37029 39.3599C5.05137 39.8436 4.75697 40.3429 4.48819 40.856C4.21884 41.3689 3.97631 41.8958 3.76062 42.4334C3.54492 42.971 3.35713 43.5192 3.19723 44.0761C3.03734 44.633 2.90642 45.1973 2.8034 45.767C2.37534 48.1628 2.43189 50.6197 2.96973 52.9933C3.23801 54.1767 3.62326 55.3311 4.12118 56.4384C4.61911 57.5456 5.22542 58.6015 5.93367 59.5889C11.9066 68.1152 23.7034 70.6425 32.2325 65.2217L47.211 55.738C48.2186 55.1051 49.1565 54.3694 50.0118 53.5427C50.8669 52.7166 51.634 51.8044 52.3008 50.8205C52.9672 49.8374 53.5295 48.7869 53.9791 47.6871C54.4287 46.5884 54.7625 45.4447 54.976 44.2764C55.1531 43.2965 55.2486 42.3038 55.2615 41.3079C55.2744 40.312 55.2046 39.316 55.0522 38.3319C54.9009 37.3478 54.668 36.3775 54.3558 35.4309C54.0435 34.4853 53.654 33.5665 53.1904 32.6841C53.5091 32.2011 53.8042 31.701 54.0735 31.188C54.3418 30.6751 54.5854 30.1482 54.8011 29.6106C55.0168 29.0731 55.2057 28.5248 55.3666 27.9679C55.5265 27.4121 55.6596 26.8478 55.7637 26.2781C55.9762 25.083 56.0685 23.8696 56.0406 22.6563C56.0127 21.443 55.8635 20.2361 55.5952 19.0517C55.3269 17.8684 54.9417 16.714 54.4438 15.6067C53.9465 14.4992 53.34 13.4439 52.6334 12.4562" fill="#FF3E00"/>
<path id="Vector_2" d="M24.8703 60.4134C23.698 60.7173 22.4861 60.8408 21.2765 60.7796C20.0671 60.7175 18.8738 60.4733 17.7384 60.0525C16.603 59.6323 15.5384 59.0419 14.5813 58.3016C13.625 57.5608 12.7873 56.679 12.097 55.6865C11.671 55.0921 11.3062 54.4582 11.0078 53.7921C10.7086 53.1264 10.4768 52.4326 10.3157 51.721C10.1558 51.0089 10.0656 50.2828 10.0495 49.5535C10.0334 48.8243 10.0903 48.095 10.2191 47.3764C10.2395 47.2597 10.2631 47.143 10.2888 47.0273C10.3135 46.9106 10.3414 46.795 10.3715 46.6804C10.4004 46.5647 10.4326 46.4501 10.467 46.3355C10.5002 46.222 10.5367 46.1085 10.5743 45.9961L10.8565 45.1362L11.6259 45.7091C12.067 46.0303 12.522 46.3334 12.9888 46.6161C13.4556 46.8999 13.9342 47.1633 14.4235 47.4054C14.9118 47.6484 15.4119 47.8712 15.9195 48.0714C16.4271 48.2728 16.9432 48.4516 17.4669 48.609L18.041 48.775L17.9895 49.3479C17.9618 49.7378 18.0025 50.1296 18.1097 50.5056C18.1623 50.694 18.232 50.8761 18.3168 51.0517C18.4016 51.2273 18.5014 51.3955 18.6151 51.5539C18.8236 51.8529 19.0765 52.1183 19.3652 52.341C19.6528 52.5638 19.9737 52.7416 20.316 52.8679C20.6583 52.9943 21.0168 53.0671 21.3816 53.0853C21.7454 53.1046 22.1103 53.0671 22.4633 52.975C22.5449 52.9536 22.6243 52.929 22.7037 52.9011C22.7831 52.8733 22.8614 52.8433 22.9376 52.809C23.0149 52.7758 23.09 52.7394 23.1651 52.6998C23.2392 52.6612 23.3111 52.6195 23.3819 52.5745L38.3379 43.0501C38.5212 42.9354 38.6921 42.8018 38.8476 42.6517C39.0032 42.5007 39.1416 42.3347 39.2629 42.1559C39.3842 41.9771 39.485 41.7854 39.5666 41.5851C39.6471 41.3849 39.7072 41.1771 39.7458 40.9651C39.7834 40.7477 39.7995 40.5282 39.7941 40.3076C39.7887 40.088 39.7608 39.8696 39.7115 39.6543C39.6632 39.4401 39.5924 39.2313 39.5011 39.03C39.411 38.8297 39.2994 38.6391 39.1706 38.4603C38.9624 38.1615 38.7103 37.897 38.4216 37.6743C38.1329 37.4515 37.8121 37.2737 37.4708 37.1474C37.1288 37.021 36.7695 36.9473 36.4052 36.9289C36.0403 36.9107 35.6755 36.9482 35.3224 37.0392C35.242 37.0606 35.1615 37.0853 35.0821 37.1131C35.0026 37.141 34.9254 37.1709 34.8481 37.2041C34.7709 37.2384 34.6957 37.2748 34.6217 37.3144C34.5476 37.353 34.4747 37.3958 34.4039 37.4408L28.6605 41.0797C28.4266 41.2274 28.1862 41.3667 27.9416 41.4973C27.6958 41.6269 27.4469 41.7479 27.1925 41.8593C26.9382 41.9706 26.6796 42.0724 26.4177 42.1634C26.1559 42.2555 25.8908 42.3369 25.6226 42.4086C24.4518 42.7106 23.2424 42.8327 22.0351 42.7706C20.8279 42.7085 19.6378 42.4632 18.5046 42.0445C17.3714 41.6247 16.309 41.0347 15.3539 40.2958C14.3989 39.5569 13.5618 38.6777 12.8718 37.6871C12.4479 37.0928 12.0842 36.4577 11.7869 35.7916C11.4886 35.1256 11.2579 34.4316 11.098 33.7206C10.9381 33.0084 10.8501 32.2824 10.8351 31.5531C10.819 30.8249 10.8758 30.0956 11.0057 29.3781C11.2594 27.9655 11.8054 26.6211 12.6089 25.4309C13.413 24.2406 14.4572 23.231 15.6748 22.4667L30.6769 12.9433C30.9098 12.7955 31.148 12.6563 31.3916 12.5257C31.6352 12.3961 31.8842 12.2751 32.1364 12.1637C32.3891 12.0523 32.6461 11.9508 32.9069 11.8596C33.1665 11.7675 33.4305 11.685 33.6977 11.6133C34.8696 11.3102 36.0811 11.186 37.2895 11.247C38.4988 11.3092 39.6911 11.5533 40.8264 11.9742C41.9618 12.394 43.0252 12.9851 43.9825 13.7251C44.9385 14.4663 45.7758 15.3484 46.4656 16.3412C46.8906 16.9345 47.2565 17.5685 47.5559 18.2345C47.8553 18.9006 48.0871 19.5935 48.2492 20.3056C48.4101 21.0178 48.5003 21.7438 48.5164 22.4731C48.5335 23.2024 48.4777 23.9316 48.349 24.6502C48.3264 24.768 48.3028 24.8858 48.276 25.0025C48.2502 25.1192 48.2223 25.236 48.1923 25.3516C48.1633 25.4684 48.1311 25.584 48.0978 25.6986C48.0646 25.8142 48.0302 25.9288 47.9927 26.0423L47.7062 26.9023L46.9421 26.3293C46.5 26.0049 46.0439 25.7007 45.576 25.4148C45.1082 25.13 44.6274 24.8644 44.137 24.6191C43.1552 24.1304 42.1339 23.7249 41.084 23.4069L40.5088 23.2409L40.5614 22.668C40.5775 22.472 40.5764 22.275 40.5582 22.0801C40.541 21.8852 40.5056 21.6914 40.4541 21.5018C40.4015 21.3133 40.3339 21.1281 40.2491 20.9514C40.1654 20.7736 40.0656 20.6044 39.9518 20.4438C39.7425 20.1503 39.4895 19.8903 39.2017 19.6727C38.9144 19.4542 38.5952 19.2809 38.2553 19.1587C37.5722 18.9114 36.8298 18.8782 36.1273 19.0634C36.0457 19.0848 35.9652 19.1095 35.8869 19.1362C35.8075 19.1641 35.7291 19.1951 35.6519 19.2283C35.5757 19.2615 35.4995 19.299 35.4255 19.3376C35.3514 19.3772 35.2784 19.4189 35.2076 19.4639L20.2237 28.9712C20.0413 29.0858 19.8707 29.2196 19.7161 29.3696C19.5616 29.5195 19.4221 29.6855 19.3008 29.8632C19.1806 30.0421 19.0789 30.2326 18.9972 30.4319C18.9156 30.6321 18.8555 30.8388 18.8169 31.0509C18.7793 31.2682 18.7632 31.4888 18.7686 31.7094C18.7815 32.151 18.881 32.5858 19.0615 32.9892C19.1526 33.1899 19.2629 33.3815 19.391 33.561C19.5981 33.8566 19.8492 34.12 20.1357 34.3406C20.4217 34.5622 20.7397 34.7392 21.079 34.8653C21.7612 35.1184 22.5043 35.1591 23.2102 34.9821C23.2907 34.9596 23.3712 34.9349 23.4506 34.9071C23.5289 34.8793 23.6073 34.8482 23.6845 34.815C23.7614 34.7816 23.837 34.7452 23.9109 34.7058C23.985 34.6672 24.058 34.6255 24.1288 34.5805L29.8721 30.9481C30.1071 30.7981 30.3464 30.6568 30.5921 30.5261C30.8368 30.3944 31.0869 30.2734 31.3423 30.161C31.5968 30.0495 31.8556 29.9481 32.1181 29.8568C32.381 29.7647 32.6472 29.6833 32.9165 29.6127C34.0884 29.3085 35.2988 29.1843 36.5082 29.2443C37.7176 29.3053 38.9099 29.5495 40.0452 29.9693C41.1795 30.3891 42.244 30.9791 43.2002 31.7202C44.1574 32.4601 44.9944 33.3415 45.6844 34.3342C46.1094 34.9285 46.4742 35.5625 46.7736 36.2286C47.073 36.8943 47.3052 37.588 47.4669 38.2997C47.6278 39.0107 47.718 39.7368 47.7351 40.466C47.7523 41.1964 47.6954 41.9257 47.5677 42.6431C47.4412 43.3476 47.2416 44.037 46.9722 44.7003C46.7029 45.3637 46.3649 45.9972 45.9634 46.5904C45.5632 47.1837 45.1017 47.7341 44.5866 48.2321C44.0715 48.73 43.506 49.1734 42.8986 49.5546L27.9137 59.078C27.6786 59.2268 27.4383 59.3671 27.1936 59.4977C26.9479 59.6284 26.6978 59.7494 26.4424 59.8608C26.1881 59.9732 25.9295 60.0749 25.6666 60.167C25.4047 60.2591 25.1386 60.3416 24.8703 60.4134Z" fill="white"/>
</g>
</svg>
